<?xml version="1.0" encoding="UTF-8" standalone="no"?>
<svg
   width="611.51996"
   height="166.04355"
   viewBox="0 0 611.51996 166.04354"
   fill="none"
   version="1.1"
   id="svg204"
   sodipodi:docname="logo.svg"
   inkscape:version="1.2.2 (b0a84865, 2022-12-01)"
   xmlns:inkscape="http://www.inkscape.org/namespaces/inkscape"
   xmlns:sodipodi="http://sodipodi.sourceforge.net/DTD/sodipodi-0.dtd"
   xmlns="http://www.w3.org/2000/svg"
   xmlns:svg="http://www.w3.org/2000/svg">
  <defs
     id="defs208" />
  <sodipodi:namedview
     id="namedview206"
     pagecolor="#ffffff"
     bordercolor="#666666"
     borderopacity="1.0"
     inkscape:showpageshadow="2"
     inkscape:pageopacity="0.0"
     inkscape:pagecheckerboard="0"
     inkscape:deskcolor="#d1d1d1"
     showgrid="false"
     inkscape:zoom="1.1649483"
     inkscape:cx="287.13721"
     inkscape:cy="16.73894"
     inkscape:window-width="1530"
     inkscape:window-height="839"
     inkscape:window-x="1660"
     inkscape:window-y="33"
     inkscape:window-maximized="0"
     inkscape:current-layer="layer1" />
  <text
     xml:space="preserve"
     style="font-size:16px;line-height:1.25;font-family:sans-serif"
     x="-287.33307"
     y="95.253021"
     id="text608"
     transform="scale(-1,1)"><tspan
       sodipodi:role="line"
       id="tspan606"
       x="-287.33307"
       y="95.253021"
       style="fill:#000000" /></text>
  <text
     xml:space="preserve"
     style="font-size:16px;line-height:1.25;font-family:sans-serif;fill:#000000"
     x="232.41022"
     y="103.47068"
     id="text664"><tspan
       sodipodi:role="line"
       id="tspan662"
       x="232.41022"
       y="103.47068" /></text>
  <g
     id="g720"
     transform="matrix(1.3055646,0,0,1.3055646,2.9071658,-49.353205)">
    <path
       d="m 85.08438,76.708908 c 0.0402,-0.1932 0.1117,-0.4667 0.2517,-0.7713 0.1609,-0.3537 0.3472,-0.6093 0.5125,-0.8159 0.5155,-0.6465 0.8999,-0.9095 1.4333,-1.4296 0.3158,-0.3077 0.5601,-0.6019 1.0503,-1.1919 1.6539,-1.9869 2.9739,-4.4123 3.3449,-5.0989 0.888,-1.6495 1.333,-2.4758 1.481,-3.0495 0.196,-0.7653 0.235,-1.4296 0.812,-1.9542 0.332,-0.3017 0.64,-0.3879 1.576,-0.6673 0.941,-0.2808 1.876,-0.584 2.819,-0.8574 1.947,-0.5663 2.458,-0.7684 2.675,-0.8575 1.735,-0.7089 2.05,-1.1845 2.165,-1.3821 0.295,-0.5083 0.52,-1.3672 0.182,-1.9334 -0.209,-0.3508 -0.545,-0.6955 -0.545,-0.6955 -0.279,-0.2854 -0.429,-0.3567 -0.455,-0.5291 -0.049,-0.3359 0.434,-0.6628 0.545,-0.7401 1.851,-1.2929 3.375,-5.1895 8.119,-7.707 0.844,-0.4488 2.269,-1.06252 3.341,-2.31383 0.498,-0.57958 0.724,-1.07891 1.18,-2.07907 0.108,-0.2348 0.255,-0.58107 0.158,-0.98083 -0.025,-0.107 -0.118,-0.41611 -0.393,-0.62714 -0.297,-0.22737 -0.647,-0.20657 -1.337,-0.15753 -0.667,0.04905 -1.002,0.07282 -1.533,0.11741 -0.771,0.06539 -1.248,0.08025 -2.084,0.19616 -0.292,0.04013 -0.612,0.09066 -0.983,0.27493 -0.316,0.15753 -0.536,0.34627 -0.669,0.4711 -1.14,1.07892 -2.005,2.62745 -2.005,2.62745 -1.341,2.40005 -2.284,1.91415 -3.539,4.15665 -0.474,0.8471 -1.192,1.5337 -1.768,2.3139 -0.103,0.1397 -0.359,0.4859 -0.511,0.4309 -0.164,-0.0594 -0.133,-0.5587 -0.118,-0.7846 0.031,-0.5038 0.158,-0.8635 0.158,-0.8635 0.256,-0.7341 0.158,-1.0848 0.746,-3.5295 0.412,-1.70454 0.617,-2.55756 0.944,-3.41208 0.324,-0.84708 0.482,-1.06257 1.494,-3.29471 0.338,-0.74751 0.609,-1.36127 0.786,-1.76401 -1.284,-0.03121 -2.352,0.03715 -3.145,0.1174 -1.227,0.12484 -0.759,0.17239 -2.005,0.31357 -0.84,0.09511 -1.426,0.11592 -1.768,0.54838 -0.179,0.22589 -0.218,0.4711 -0.236,0.5885 -0.369,2.32279 -0.932,4.61289 -1.257,6.94015 -0.185,1.3182 -0.237,1.5158 -0.158,1.9602 0.089,0.4963 0.29,1.0105 0.039,1.2542 -0.114,0.11 -0.298,0.1472 -0.432,0.1174 -0.565,-0.1248 -0.544,-1.5039 -0.905,-3.2545 -0.497,-2.41199 -1.022,-2.14004 -1.454,-4.39149 -0.065,-0.33884 -0.246,-1.34791 -0.904,-2.43128 -0.246,-0.40422 -0.37,-0.60782 -0.55,-0.7059 -0.739,-0.40274 -2.062,0.62713 -4.7063,2.68391 -0.0804,0.06242 -0.1996,0.15753 -0.2771,0.32249 -0.3471,0.74008 0.6689,1.7863 1.5018,2.92615 0.1355,0.18577 0.7596,1.36872 2.0096,3.73312 2.496,4.7229 1.831,3.8891 1.941,4.0333 0.06,0.0773 0.297,0.376 0.209,0.5068 -0.076,0.1144 -0.361,0.046 -0.462,0.0237 -0.791,-0.1783 -0.447,0.1278 -2.194,-0.1842 -1.815,-0.324 -3.4374,-0.8754 -3.8352,-1.0136 -1.0936,-0.3789 -1.6448,-0.5706 -2.4031,-0.9674 -1.2098,-0.6346 -1.4035,-0.9675 -1.8251,-0.9675 -0.4216,0 -2.5416,4.9785 -2.5416,4.9785 0.5274,-0.1516 1.9099,-0.2318 2.8649,-0.2541 0.3695,-0.009 0.8641,0.0044 2.5417,0.2764 1.7907,0.2913 1.612,0.3403 3.0958,0.5766 1.0087,0.1605 1.9876,0.4993 3.0036,0.5989 0.259,0.0253 0.845,0.0758 1.225,0.5068 0.061,0.0698 0.368,0.419 0.277,0.7608 -0.088,0.33 -0.487,0.3181 -1.386,0.8293 -0.624,0.3552 -0.913,0.4934 -1.227,0.8605 -0.233,0.2689 -0.449,0.5201 -0.473,0.8827 -0.018,0.2779 0.088,0.4488 -0.024,0.6717 -0.1083,0.217 -0.3348,0.3032 -0.4599,0.3537 -0.4887,0.1977 -0.9208,0.5112 -1.3826,0.7639 -0.9371,0.5157 -1.3856,1.4995 -1.7684,2.3406 -0.2831,0.6212 -0.4246,0.9318 -0.4649,1.2513 -0.0238,0.1888 -0.0447,0.5172 -0.1475,0.5335 -0.0506,0.0075 -0.1177,-0.0609 -0.146,-0.1263 -0.0327,-0.0788 -0.0104,-0.1575 0,-0.1962 0.0254,-0.101 0.0432,-0.2556 0,-0.4785 v -0.483 h -15.0756 c -0.0522,-0.0237 -0.0522,-0.0297 -0.1401,-0.0698 -0.4946,-0.2274 -0.6823,-0.3002 -0.9549,-0.4236 -0.8552,-0.3849 -0.9252,-0.5335 -1.1815,-0.4725 -0.2249,0.0535 -0.4469,0.2348 -0.4887,0.2675 -0.1415,0.1159 -0.2339,0.2348 -0.3039,0.3239 -0.1043,0.1353 -0.1832,0.2631 -0.2398,0.373 h -0.4589 c -0.1132,-0.1813 -0.2905,-0.4607 -0.5513,-0.7073 -0.6778,-0.6435 -1.4376,-0.8367 -1.8846,-0.9437 -1.092,-0.2631 -1.9889,-0.1041 -2.7026,0.0282 -0.9773,0.1813 -1.8474,0.5424 -2.0276,0.6182 -0.7241,0.3047 -1.247,0.6257 -2.2244,0.8709 -0.2815,0.0698 -0.5184,0.1129 -0.6763,0.1397 h -0.7599 c -0.0655,-0.0045 -0.3962,-0.0297 -0.5706,-0.2824 -0.0655,-0.0951 -0.1296,-0.2511 -0.0774,-0.5796 0.0953,-0.6093 0.4663,-1.0387 0.5035,-1.0833 0.8716,-1.021 0.7032,-3.6247 0.6585,-4.2919 -0.0521,-0.7921 -0.3188,-1.6882 -0.8521,-3.4805 -0.0581,-0.1976 -0.6124,-2.0211 -1.6284,-3.7509 -0.1967,-0.3359 -0.5051,-0.8263 -1.0861,-1.1993 -0.5364,-0.3433 -1.0533,-0.4251 -1.3185,-0.4637 -3.2926,-0.4845 -4.9388,-0.7252 -5.6599,-0.6182 -0.952,0.1412 -3.7067,0.5498 -5.505,2.785 -1.0533,1.3092 -1.3244,2.6809 -1.6283,4.2146 -0.3829,1.9393 -0.7033,3.5577 -0.2712,5.5298 0.1981,0.905 0.5498,1.8621 0.0387,2.513 -0.3501,0.4473 -0.9996,0.6123 -1.3572,0.7029 -0.6511,0.165 -1.2112,0.1159 -1.5494,0.0595 h -16.1409 v 17.5628 c 0.009,0.1932 0.009,0.7475 -0.3829,1.186 -0.0968,0.1084 -0.1967,0.2199 -0.3561,0.2704 -0.4335,0.1382 -0.7255,-0.3611 -1.46,-0.7282 -0.2324,-0.1159 -1.3334,-0.6643 -2.4106,-0.4399 -0.216,0.0446 -0.5959,0.1561 -0.7806,-0.0341 -0.1103,-0.113 -0.0894,-0.269 -0.1014,-0.3894 -0.0774,-0.7817 -1.6879,-1.2781 -1.8339,-1.3212 -0.5155,-0.153 -1.0504,-0.1872 -2.1216,-0.2541 -0.5154,-0.0327 -0.943,-0.0386 -1.4943,-0.2541 -0.3814,-0.1486 -0.6719,-0.2616 -0.8492,-0.5246 -0.1922,-0.2868 -0.2071,-0.6851 0.3397,-2.1668 0.4619,-1.2513 0.6794,-1.8858 1.171,-2.6408 0.7762,-1.1933 1.1636,-1.7893 1.1889,-1.8115 0.0656,-0.0595 0.2846,-0.2512 0.3561,-0.5588 0.073,-0.3136 -0.0462,-0.5811 -0.0686,-0.6272 -0.1549,-0.3328 -0.4588,-0.4562 -0.8149,-0.6434 -0.9684,-0.5098 -0.9401,-0.7728 -1.9353,-1.2187 -0.6153,-0.2749 -0.8045,-0.2556 -0.9341,-0.1857 -0.0581,0.0312 -0.1564,0.101 -0.4246,0.8798 -0.1877,0.5454 -0.2816,0.8173 -0.3054,1.0328 -0.0418,0.3656 0.0104,0.532 -0.1356,0.7119 -0.1848,0.2258 -0.4961,0.2362 -0.5259,0.2377 -0.1445,0.003 -0.3278,-0.0386 -0.7464,-0.3893 -0.4202,-0.3522 -0.6898,-0.6896 -0.7986,-0.8293 -0.2994,-0.3879 -0.4812,-0.7029 -0.6793,-1.0492 -0.1773,-0.3091 -0.3993,-0.7267 -0.6288,-1.2364 -0.2398,0.3225 -0.7449,1.0685 -0.9162,2.0493 -0.1475,0.8397 -0.0194,1.6615 0.0164,1.88 0.0581,0.2229 0.146,0.4978 0.2384,0.9644 0.073,0.3745 0.1653,0.8442 0.0685,0.8798 -0.0581,0.0223 -0.1609,-0.1218 -0.4246,-0.5082 -0.6347,-0.9303 -0.806,-1.2172 -0.8999,-1.1859 -0.0775,0.0252 -0.0268,0.2422 -0.0506,0.6093 -0.0343,0.5186 -0.1892,0.8857 -0.4068,1.4058 -0.1445,0.3433 -0.2964,0.703 -0.61079,1.1176 -0.14005,0.1828 -0.32181,0.4235 -0.62871,0.6598 -0.50655,0.3923 -0.801532,0.3522 -0.849212,0.5424 -0.06853,0.2794 0.543792,0.4949 1.494312,1.2707 1.1844,0.9674 1.3498,1.5485 1.9353,1.9304 0.0611,0.0402 0.2548,0.1605 0.3397,0.3894 0.0193,0.0535 0.0953,0.2794 0.001,0.4711 -0.1535,0.3136 -0.6243,0.1308 -0.964,0.48 -0.0864,0.0892 -0.3963,0.4176 -0.4424,0.9214 -0.0701,0.7668 0.5244,1.2974 0.6421,1.4029 0.292,0.26 0.587,0.3507 1.165,0.5201 0.4723,0.1397 1.2172,0.3507 2.2095,0.321 0.7851,-0.0238 0.8343,-0.1739 1.6865,-0.2809 2.1155,-0.2645 3.8825,0.3968 4.538,-0.0906 0.0551,-0.0401 0.2577,-0.2051 0.4335,-0.1442 0.1609,0.0565 0.2146,0.2735 0.2473,0.3701 0.1341,0.4057 0.4962,0.5736 1.2366,1.0492 1.1099,0.7118 0.8462,0.6895 1.6701,1.1725 0.7464,0.4369 1.4243,0.7267 1.7938,0.8842 1.1025,0.4682 1.168,0.3716 1.6284,0.6792 0.2637,0.1754 0.9147,0.6242 1.2991,1.4802 0.2145,0.4815 0.2697,0.9199 0.2816,1.2022 v 43.159702 l 33.3753,6.7215 32.7376,-6.7215 V 76.708908 Z"
       fill="#ffffff"
       id="path132" />
    <path
       d="m 80.87688,69.566608 h -57.6998 v 37.298402 h 57.6998 z"
       fill="#9fd5b3"
       id="path134" />
    <path
       d="m 58.17778,123.14831 c -0.0283,-0.1233 -0.0507,-0.2229 -0.1252,-0.3314 -0.1639,-0.2437 -0.432,-0.3136 -0.511,-0.3344 -0.1043,-0.0282 -0.1967,-0.0341 -0.2592,-0.0327 h -5.4931 c -0.1713,-0.0193 -0.3113,-0.004 -0.4067,0.0119 -0.1058,0.0193 -0.2384,0.0431 -0.3844,0.1353 -0.1504,0.0921 -0.2339,0.2051 -0.2532,0.2333 -0.0298,0.0416 -0.1088,0.1605 -0.1594,0.4369 -0.0462,0.2556 -0.0343,0.4577 -0.0328,0.48 0.0194,0.3433 0.0164,1.2216 0,2.4937 -0.0209,0.2259 -0.006,0.4102 0.0119,0.5365 0.0283,0.1917 0.0462,0.3106 0.1311,0.4429 0.1073,0.1709 0.2548,0.2526 0.3173,0.2883 0.2146,0.1159 0.4187,0.1203 0.5155,0.1144 h 5.6227 c 0.0834,0.007 0.2026,0.0104 0.3441,-0.0134 0.1326,-0.0238 0.2667,-0.0475 0.4008,-0.1501 0.0268,-0.0208 0.149,-0.1174 0.222,-0.2883 0.0283,-0.0669 0.0387,-0.1204 0.0566,-0.217 0.0164,-0.0951 0.0313,-0.2154 0.0328,-0.3566 v -2.9574 c 0.0119,-0.1144 0.0163,-0.2883 -0.0298,-0.4919 z m 0,0 c -0.0283,-0.1233 -0.0507,-0.2229 -0.1252,-0.3314 -0.1639,-0.2437 -0.432,-0.3136 -0.511,-0.3344 -0.1043,-0.0282 -0.1967,-0.0341 -0.2592,-0.0327 h -5.4931 c -0.1713,-0.0193 -0.3113,-0.004 -0.4067,0.0119 -0.1058,0.0193 -0.2384,0.0431 -0.3844,0.1353 -0.1504,0.0921 -0.2339,0.2051 -0.2532,0.2333 -0.0298,0.0416 -0.1088,0.1605 -0.1594,0.4369 -0.0462,0.2556 -0.0343,0.4577 -0.0328,0.48 0.0194,0.3433 0.0164,1.2216 0,2.4937 -0.0209,0.2259 -0.006,0.4102 0.0119,0.5365 0.0283,0.1917 0.0462,0.3106 0.1311,0.4429 0.1073,0.1709 0.2548,0.2526 0.3173,0.2883 0.2146,0.1159 0.4187,0.1203 0.5155,0.1144 h 5.6227 c 0.0834,0.007 0.2026,0.0104 0.3441,-0.0134 0.1326,-0.0238 0.2667,-0.0475 0.4008,-0.1501 0.0268,-0.0208 0.149,-0.1174 0.222,-0.2883 0.0283,-0.0669 0.0387,-0.1204 0.0566,-0.217 0.0164,-0.0951 0.0313,-0.2154 0.0328,-0.3566 v -2.9574 c 0.0119,-0.1144 0.0163,-0.2883 -0.0298,-0.4919 z m 0,0 c -0.0283,-0.1233 -0.0507,-0.2229 -0.1252,-0.3314 -0.1639,-0.2437 -0.432,-0.3136 -0.511,-0.3344 -0.1043,-0.0282 -0.1967,-0.0341 -0.2592,-0.0327 h -5.4931 c -0.1713,-0.0193 -0.3113,-0.004 -0.4067,0.0119 -0.1058,0.0193 -0.2384,0.0431 -0.3844,0.1353 -0.1504,0.0921 -0.2339,0.2051 -0.2532,0.2333 -0.0298,0.0416 -0.1088,0.1605 -0.1594,0.4369 -0.0462,0.2556 -0.0343,0.4577 -0.0328,0.48 0.0194,0.3433 0.0164,1.2216 0,2.4937 -0.0209,0.2259 -0.006,0.4102 0.0119,0.5365 0.0283,0.1917 0.0462,0.3106 0.1311,0.4429 0.1073,0.1709 0.2548,0.2526 0.3173,0.2883 0.2146,0.1159 0.4187,0.1203 0.5155,0.1144 h 5.6227 c 0.0834,0.007 0.2026,0.0104 0.3441,-0.0134 0.1326,-0.0238 0.2667,-0.0475 0.4008,-0.1501 0.0268,-0.0208 0.149,-0.1174 0.222,-0.2883 0.0283,-0.0669 0.0387,-0.1204 0.0566,-0.217 0.0164,-0.0951 0.0313,-0.2154 0.0328,-0.3566 v -2.9574 c 0.0119,-0.1144 0.0163,-0.2883 -0.0298,-0.4919 z m 0,0 c -0.0283,-0.1233 -0.0507,-0.2229 -0.1252,-0.3314 -0.1639,-0.2437 -0.432,-0.3136 -0.511,-0.3344 -0.1043,-0.0282 -0.1967,-0.0341 -0.2592,-0.0327 h -5.4931 c -0.1713,-0.0193 -0.3113,-0.004 -0.4067,0.0119 -0.1058,0.0193 -0.2384,0.0431 -0.3844,0.1353 -0.1504,0.0921 -0.2339,0.2051 -0.2532,0.2333 -0.0298,0.0416 -0.1088,0.1605 -0.1594,0.4369 -0.0462,0.2556 -0.0343,0.4577 -0.0328,0.48 0.0194,0.3433 0.0164,1.2216 0,2.4937 -0.0209,0.2259 -0.006,0.4102 0.0119,0.5365 0.0283,0.1917 0.0462,0.3106 0.1311,0.4429 0.1073,0.1709 0.2548,0.2526 0.3173,0.2883 0.2146,0.1159 0.4187,0.1203 0.5155,0.1144 h 5.6227 c 0.0834,0.007 0.2026,0.0104 0.3441,-0.0134 0.1326,-0.0238 0.2667,-0.0475 0.4008,-0.1501 0.0268,-0.0208 0.149,-0.1174 0.222,-0.2883 0.0283,-0.0669 0.0387,-0.1204 0.0566,-0.217 0.0164,-0.0951 0.0313,-0.2154 0.0328,-0.3566 v -2.9574 c 0.0119,-0.1144 0.0163,-0.2883 -0.0298,-0.4919 z m 9.0448,-9.0757 h 13.6543 v -6.4868 h -57.6998 v 6.4928 c 8.6365,0.0238 11.5968,0.003 11.9157,-0.002 0.3635,-0.004 1.0965,0.0357 1.1307,0.0446 0.0254,0.004 0.0522,0.0297 0.0581,0.0327 0.0179,0.0148 0.0328,0.0564 0.0358,0.0624 0.007,0.0238 0.0134,0.208 0.0134,0.3165 0,0.0758 -0.0521,0.1769 -0.1028,0.2601 -0.0387,0.0624 -0.1058,0.1159 -0.1922,0.1382 h -12.8587 v 15.8821 l 29.1277,5.8673 28.4067,-5.8673 h 0.1654 v -15.888 c -9.0955,-0.0268 -12.1824,-0.0194 -12.5072,0 -0.3605,0.0223 -0.724,-0.0402 -1.0831,0 -0.001,0 -0.0298,0.004 -0.064,-0.003 -0.0254,-0.006 -0.0373,-0.0134 -0.0418,-0.0178 -0.0178,-0.0149 -0.0253,-0.0327 -0.0268,-0.0402 -0.009,-0.0223 -0.006,-0.0416 -0.004,-0.049 0.004,-0.0431 -0.003,-0.0877 -0.001,-0.1308 0.003,-0.0921 -0.0164,-0.1055 -0.0164,-0.214 0,-0.0758 10e-4,-0.1471 0.0253,-0.2363 0.0179,-0.0698 0.0447,-0.1248 0.0656,-0.162 z m -8.0049,-1.0551 c 0.006,-0.0357 0.0178,-0.0907 0.0506,-0.1531 l 0.3188,-0.911 c 0.0284,-0.0119 0.0686,-0.0267 0.1207,-0.0401 0.1401,-0.0386 0.2429,-0.0327 0.3963,-0.0327 0.1505,0 0.0492,-0.007 0.3188,-0.0119 0.4544,-0.009 1.1219,0.003 1.6895,0.003 0.3337,0 0.3814,-0.005 0.8254,-0.003 0.5036,0 0.3963,0.004 0.66,0.003 0.2056,0 0.5736,-0.005 1.0086,0.0297 0.2488,0.0208 0.3427,0.0714 0.4157,0.113 0.1624,0.0921 0.2443,0.2125 0.2607,0.2363 0.0849,0.1248 0.1073,0.2452 0.1236,0.3269 0.0135,0.0669 0.0164,0.1323 0.0254,0.2645 0.007,0.1234 0.004,0.1903 0.004,0.2155 -0.003,0.0773 -0.0104,0.1412 -0.0163,0.1873 h -6.1233 c 0,0 -0.0149,-0.0149 -0.0238,-0.0268 -0.0134,-0.0148 -0.0492,-0.0609 -0.0581,-0.1248 -0.003,-0.0283 0,-0.0505 0.003,-0.0758 z m 4.976,2.3659 c 0,0 -0.003,-0.0624 -0.0119,-0.1977 -0.004,-0.0698 -0.007,-0.0981 -0.0298,-0.1203 -0.0387,-0.0417 -0.1117,-0.0313 -0.1326,-0.0298 -0.3054,0.0372 -0.6153,-0.0119 -0.9222,0.008 0,0 -0.5214,0.0327 -0.9744,0.006 -0.0178,-0.002 -0.0625,-0.004 -0.1504,-0.0104 -0.0209,0 -0.0954,-0.007 -0.1892,-0.0208 -0.0775,-0.0119 -0.1162,-0.0208 -0.1445,-0.052 -0.005,-0.006 -0.0224,-0.0238 -0.0284,-0.0535 -0.004,-0.0193 -0.003,-0.0387 0.007,-0.0773 0.0149,-0.055 0.0343,-0.0936 0.0357,-0.0966 0.0477,-0.0981 0.0462,-0.1025 0.0701,-0.1471 0.0968,-0.1798 0.0804,-0.165 0.1326,-0.2527 0.0551,-0.0921 0.0819,-0.1397 0.134,-0.1991 0.0388,-0.0446 0.0939,-0.107 0.1863,-0.162 0.0968,-0.0579 0.1862,-0.0773 0.2384,-0.0877 0.0357,-0.006 0.0953,-0.0163 0.2368,-0.0148 0.1624,0 0.2831,0.0148 0.2995,0.0163 0.1162,0.0134 0.3039,0.0149 0.6794,0.0179 0.2219,0.001 0.3828,-10e-4 0.5825,-0.004 0.3441,-0.005 0.5453,-0.007 0.6838,-0.0119 0.0656,-0.003 0.1326,0 0.1982,-0.003 0.0476,-0.003 0.0789,-0.004 0.1266,10e-4 0.0626,0.008 0.0998,0.0119 0.1356,0.0402 0.0551,0.043 0.0655,0.1129 0.073,0.159 0.007,0.0446 0.003,0.0832 0,0.1085 v 1.9141 c -0.006,0.1099 -0.0283,0.2511 -0.0924,0.4012 -0.0357,0.0803 -0.1251,0.2824 -0.3397,0.4399 -0.0342,0.0267 -0.1579,0.1129 -0.3397,0.165 -0.0193,0.006 -0.0864,0.0237 -0.1907,0.0356 -0.2249,0.0268 -0.4022,-0.004 -0.429,-0.004 -0.2384,0 -4.1641,0.0133 -4.5142,0 -0.0358,-0.002 -0.1296,-0.008 -0.1639,-0.0654 -0.0194,-0.0342 -0.0164,-0.0743 -0.0149,-0.0951 10e-4,-0.0357 0.0119,-0.0625 0.0268,-0.0981 0.0209,-0.0491 0.0417,-0.0832 0.0447,-0.0877 0.0492,-0.0817 0.0656,-0.1575 0.1356,-0.318 0.0402,-0.0951 0.073,-0.1694 0.1311,-0.2646 0.0894,-0.1471 0.152,-0.1961 0.1773,-0.2154 0.064,-0.0461 0.1236,-0.0669 0.1564,-0.0803 0.1058,-0.0371 0.1937,-0.0416 0.228,-0.0416 1.7177,-0.0594 2.8232,-0.0416 2.8232,-0.0416 0.5021,0.007 0.3724,-0.003 0.5229,-0.005 0,0 0.1669,0.0179 0.3904,-0.0193 0.0461,-0.007 0.1132,-0.0208 0.1594,-0.0758 0.0327,-0.0371 0.0417,-0.0802 0.0506,-0.1337 0.0105,-0.052 0.006,-0.0714 10e-4,-0.2259 z m -5.344,0.636 c 0.007,0.0996 -10e-4,0.1769 -0.007,0.2259 -0.0104,0.0907 -0.0283,0.159 -0.0476,0.2259 -0.0164,0.0639 -0.0224,0.0713 -0.0567,0.1798 -0.0461,0.1442 -0.1162,0.2824 -0.1489,0.431 -0.002,0.007 -0.008,0.0312 -0.0254,0.0505 -0.0119,0.0104 -0.0238,0.0164 -0.0327,0.0194 -0.009,0.004 -0.0254,0.0104 -0.0656,0.0104 -0.0164,0 -0.0194,-0.001 -0.0656,-0.004 -0.0297,-0.002 -0.0461,-0.003 -0.0685,-0.003 h -2.8769 c -1.6209,0 -2.4314,0 -2.4776,0.003 -0.0551,0.003 -0.1117,-0.002 -0.1668,0 -0.0358,0.001 -0.0715,0.003 -0.1177,-0.009 -0.0328,-0.009 -0.0671,-0.0178 -0.0924,-0.0491 -0.0149,-0.0178 -0.0238,-0.0386 -0.0238,-0.0416 -0.007,-0.0163 -0.009,-0.0312 -0.0119,-0.0446 -0.003,-0.0222 -0.003,-0.0416 -0.003,-0.049 0.002,-0.0401 0.003,-0.0609 0.005,-0.0981 10e-4,-0.0565 10e-4,-0.0995 10e-4,-0.1367 -10e-4,-0.107 -0.003,-0.1531 -0.004,-0.2066 -0.002,-0.0936 -0.003,-0.1872 0.0149,-0.3002 0.0104,-0.0683 0.0268,-0.1649 0.0804,-0.2808 0.0537,-0.113 0.1177,-0.1888 0.146,-0.22 0.0715,-0.0802 0.1416,-0.1278 0.1758,-0.1501 0.0403,-0.0282 0.0745,-0.0461 0.1133,-0.0669 0.0849,-0.0475 0.1519,-0.0757 0.1713,-0.0847 0.001,0 0.1341,-0.0654 0.3993,-0.1946 0.2994,-0.1472 0.7032,-0.3508 0.8611,-0.4295 0.5527,-0.2779 0.8298,-0.4161 0.9773,-0.4934 0.0417,-0.0223 0.1177,-0.0609 0.2712,-0.1382 0.2458,-0.1249 0.3188,-0.159 0.4246,-0.1947 0.1266,-0.0431 0.222,-0.0609 0.2547,-0.0669 0.0462,-0.009 0.1207,-0.0193 0.2459,-0.0252 0.1609,-0.007 0.2711,0 0.3784,0.006 0.1892,0.009 0.1355,-0.003 0.4857,0.003 0.2264,0.004 0.4544,0.004 0.6808,0.0104 0.0179,0 0.0492,0 0.0909,-0.003 0.0402,-0.003 0.0506,-0.007 0.1013,-0.0134 0.0551,-0.006 0.0819,-0.009 0.1088,-0.006 0.0312,0.003 0.0745,0.007 0.1102,0.0401 0.0149,0.0149 0.0238,0.0312 0.0313,0.0446 0.07,0.1471 0.0492,0.321 0.0492,0.321 -0.006,0.052 -0.0239,0.162 -0.0954,0.2749 -0.0432,0.0699 -0.0894,0.1144 -0.1564,0.1798 -0.0149,0.0134 -0.073,0.0684 -0.1579,0.1323 -0.0149,0.0104 -0.0775,0.0565 -0.1803,0.1174 -0.0983,0.0565 -0.1743,0.0936 -0.2056,0.1085 -0.2697,0.1293 -0.2682,0.1471 -0.5051,0.2586 -0.213,0.0995 -0.216,0.0862 -0.4186,0.1857 -0.0968,0.0476 -0.2086,0.1055 -0.3382,0.1903 -0.0521,0.0341 -0.0939,0.0639 -0.1252,0.0862 h 2.2572 c 0.0163,0.0505 0.0327,0.1203 0.0402,0.205 z m -6.299,-2.9365 c 0.004,-0.0372 0.0149,-0.0669 0.0283,-0.0981 0.0119,-0.0297 0.0223,-0.0505 0.0253,-0.055 0.0357,-0.0713 0.07,-0.1858 0.0864,-0.2363 0.0819,-0.2407 0.0894,-0.3269 0.152,-0.4622 0.0342,-0.0728 0.0953,-0.1813 0.2041,-0.3002 l 0.4901,0.003 c 0.0507,0 1.0623,0.003 1.11,0.005 0.4454,0.001 0.9385,0.003 1.2082,0.004 0.4142,0 0.6198,0.002 0.6332,0.002 0,0 0.6421,-0.006 1.2663,0.003 0.0358,0 0.1163,0.001 0.222,0.0134 0.1207,0.0133 0.2205,0.0327 0.2935,0.0505 0.0358,0.0297 0.0835,0.0713 0.1371,0.1248 0.0447,0.0461 0.1177,0.1189 0.1773,0.2081 0.0387,0.055 0.1445,0.2155 0.1639,0.4399 0.0119,0.1367 -0.012,0.2482 -0.0313,0.3373 -0.0179,0.0847 -0.0417,0.1531 -0.0596,0.2021 -3.2791,-0.004 -5.6584,-0.006 -5.8059,-10e-4 -0.0119,10e-4 -0.0968,0.007 -0.1818,-0.0401 -0.0357,-0.0193 -0.0953,-0.0505 -0.1147,-0.1144 -0.0104,-0.0342 -0.007,-0.0654 -0.004,-0.0847 z m -8.1301,2.9365 c 0.009,0.0996 0,0.1769 -0.006,0.2259 -0.012,0.0907 -0.0298,0.159 -0.0477,0.2259 -0.0179,0.0639 -0.0224,0.0713 -0.0581,0.1798 -0.0462,0.1442 -0.1162,0.2824 -0.149,0.431 -10e-4,0.007 -0.006,0.0312 -0.0253,0.0505 -0.0119,0.0104 -0.0239,0.0164 -0.0328,0.0194 -0.009,0.004 -0.0253,0.0104 -0.0656,0.0104 -0.0163,0 -0.0193,-0.001 -0.064,-0.004 -0.0298,-0.002 -0.0477,-0.003 -0.07,-0.003 h -2.8769 c -1.621,0 -2.4314,0 -2.4776,0.003 -0.0551,0.003 -0.1118,-0.002 -0.1669,0 -0.0357,0.001 -0.0715,0.003 -0.1177,-0.009 -0.0313,-0.009 -0.067,-0.0178 -0.0923,-0.0491 -0.0149,-0.0178 -0.0224,-0.0386 -0.0239,-0.0416 -0.007,-0.0163 -0.009,-0.0312 -0.0104,-0.0446 -0.004,-0.0222 -0.004,-0.0416 -0.004,-0.049 0.001,-0.0401 0.004,-0.0609 0.004,-0.0981 0.002,-0.0565 0.002,-0.0995 0.002,-0.1367 0,-0.107 -0.003,-0.1531 -0.005,-0.2066 -0.001,-0.0936 -0.003,-0.1872 0.0149,-0.3002 0.0104,-0.0683 0.0268,-0.1649 0.0805,-0.2808 0.0536,-0.113 0.1177,-0.1888 0.146,-0.22 0.0715,-0.0802 0.1415,-0.1278 0.1758,-0.1501 0.0402,-0.0282 0.0745,-0.0461 0.1132,-0.0669 0.0849,-0.0475 0.1534,-0.0757 0.1713,-0.0847 0.001,0 0.1341,-0.0654 0.3993,-0.1946 0.2995,-0.1472 0.7032,-0.3508 0.8611,-0.4295 0.5528,-0.2779 0.8299,-0.4161 0.9788,-0.4934 0.0403,-0.0223 0.1163,-0.0609 0.2697,-0.1382 0.2458,-0.1249 0.3188,-0.159 0.4246,-0.1947 0.1281,-0.0431 0.222,-0.0609 0.2548,-0.0669 0.0462,-0.009 0.1206,-0.0193 0.2458,-0.0252 0.1624,-0.007 0.2711,0 0.3799,0.006 0.1877,0.009 0.1341,-0.003 0.4842,0.003 0.2265,0.004 0.4544,0.004 0.6809,0.0104 0.0178,0 0.0491,0 0.0923,-0.003 0.0403,-0.003 0.0492,-0.007 0.1013,-0.0134 0.0537,-0.006 0.0805,-0.009 0.1088,-0.006 0.0298,0.003 0.0745,0.007 0.1088,0.0401 0.0163,0.0149 0.0253,0.0312 0.0312,0.0446 0.0701,0.1471 0.0507,0.321 0.0507,0.321 -0.006,0.052 -0.0253,0.162 -0.0968,0.2749 -0.0433,0.0699 -0.0894,0.1144 -0.1565,0.1798 -0.0149,0.0134 -0.0715,0.0684 -0.1579,0.1323 -0.0149,0.0104 -0.0775,0.0565 -0.1803,0.1174 -0.0968,0.0565 -0.1743,0.0936 -0.2056,0.1085 -0.2681,0.1293 -0.2667,0.1471 -0.505,0.2586 -0.2131,0.0995 -0.2161,0.0862 -0.4187,0.1857 -0.0953,0.0476 -0.2085,0.1055 -0.3382,0.1903 -0.0521,0.0341 -0.0938,0.0639 -0.1236,0.0862 h 2.2571 c 0.0149,0.0505 0.0313,0.1203 0.0387,0.205 z m -6.299,-2.9365 c 0.004,-0.0372 0.0164,-0.0669 0.0283,-0.0981 0.0119,-0.0297 0.0224,-0.0505 0.0253,-0.055 0.0358,-0.0713 0.0701,-0.1858 0.0879,-0.2363 0.0805,-0.2407 0.0879,-0.3269 0.1505,-0.4622 0.0358,-0.0728 0.0954,-0.1813 0.2041,-0.3002 l 0.4902,0.003 c 0.0506,0 1.0622,0.003 1.1099,0.005 0.4455,0.001 0.9386,0.003 1.2082,0.004 0.4142,0 0.6198,0.002 0.6332,0.002 0,0 0.6436,-0.006 1.2664,0.003 0.0357,0 0.1162,0.001 0.222,0.0134 0.1207,0.0133 0.222,0.0327 0.2935,0.0505 0.0357,0.0297 0.0834,0.0713 0.137,0.1248 0.0462,0.0461 0.1177,0.1189 0.1788,0.2081 0.0373,0.055 0.143,0.2155 0.1624,0.4399 0.0119,0.1367 -0.0119,0.2482 -0.0313,0.3373 -0.0179,0.0847 -0.0402,0.1531 -0.0596,0.2021 -3.2791,-0.004 -5.6584,-0.006 -5.8059,-10e-4 -0.0119,10e-4 -0.0968,0.007 -0.1817,-0.0401 -0.0358,-0.0193 -0.0954,-0.0505 -0.1147,-0.1144 -0.0105,-0.0342 -0.006,-0.0654 -0.004,-0.0847 z m -6.7147,12.0717 -0.003,4.8373 c 10e-4,0.0118 0.005,0.0728 -0.0402,0.1188 -0.0283,0.0283 -0.0626,0.0372 -0.079,0.0416 -0.0461,0.0105 -0.0864,1e-4 -0.1147,-0.009 -0.067,-0.0178 -0.1356,-0.0267 -0.1996,-0.0505 -0.2473,-0.0936 -0.4648,-0.1233 -0.9014,-0.3136 -0.368,-0.1605 -0.6048,-0.263 -0.882,-0.4829 -0.1504,-0.1189 -0.3784,-0.3032 -0.5646,-0.6198 -0.1281,-0.2184 -0.1922,-0.4235 -0.222,-0.5439 -0.0462,-0.1813 -0.0596,-0.3343 -0.067,-0.428 -0.0105,-0.1426 -0.009,-0.2452 -0.007,-0.3373 0,-0.006 -0.001,-0.4132 -0.004,-1.229 0,-0.1739 0,-0.2601 -10e-4,-0.269 -0.0164,-0.4889 -0.0134,-0.6034 -0.007,-0.8322 0.001,-0.0417 0.004,-0.1278 0.0641,-0.1799 0.0328,-0.0297 0.0745,-0.0416 0.0968,-0.0475 0.0685,-0.0193 0.1252,-0.0134 0.1401,-0.0119 0.1877,0.0223 0.3799,-0.006 0.5676,0.0104 0.3412,0.0282 0.7538,0.0178 1.5822,-0.002 0.0596,-10e-4 0.1192,-10e-4 0.1788,-0.003 0.1281,-0.004 0.1534,-0.009 0.21,-0.001 0.076,0.0105 0.1416,0.0194 0.1892,0.0714 0.0418,0.0446 0.0507,0.1025 0.0611,0.1575 0.009,0.0505 0.007,0.0951 0.004,0.1234 z m 0.0268,-2.9202 c -0.006,0.0624 -0.0164,0.1099 -0.0536,0.1456 -0.0358,0.0342 -0.082,0.0431 -0.1281,0.052 -0.0596,0.0104 -0.0984,0.006 -0.1669,0.003 -0.0656,-0.003 -0.1326,0 -0.1981,-0.003 -0.0716,0 -0.2489,-0.003 -0.6049,-0.005 -0.3352,-0.003 -0.596,-0.004 -1.104,-0.004 -0.1534,0 -0.6168,0 -0.6957,0 -0.0194,0 -0.222,-0.001 -0.2414,-0.001 v -2.3689 c -0.001,-0.0133 -0.001,-0.046 0.0179,-0.0772 0.0149,-0.0253 0.0357,-0.0387 0.0447,-0.0446 0.0268,-0.0164 0.0521,-0.0193 0.0625,-0.0208 0.0209,-0.003 0.0373,-0.001 0.0403,0 0.2518,0.0312 0.508,0.002 0.7613,0.003 0.432,0.003 0.3858,0 1.0056,-0.003 0.3814,-0.003 0.5691,0.009 0.6034,0.003 0,0 0.3412,-0.0193 0.4902,0.006 0.0357,0.006 0.0864,0.0238 0.1206,0.0684 0.0254,0.0312 0.0328,0.0668 0.0403,0.098 0.0149,0.0684 0.009,0.1234 0.009,0.1323 -0.0194,0.1843 -0.002,0.3715 -0.009,0.5573 -0.009,0.1902 -0.006,0.4102 0,0.8486 0.001,0.0802 -10e-4,0.159 0.003,0.2392 0.006,0.1115 0.0194,0.2229 0.003,0.373 z m 14.4887,2.1905 c -0.0119,0.1857 -0.0641,0.5647 -0.3248,0.908 -0.1401,0.1843 -0.301,0.3061 -0.3576,0.3477 -0.1698,0.1219 -0.3292,0.1903 -0.4141,0.2259 -0.0552,0.0238 -0.1028,0.0416 -0.1386,0.0535 l -0.213,0.0669 c 0.1713,0.0981 0.3054,0.1724 0.3814,0.217 0.2651,0.1486 0.3203,0.1783 0.4067,0.2437 0.0998,0.0728 0.2026,0.1501 0.3099,0.2824 0.146,0.1813 0.207,0.3507 0.2175,0.3849 0.0387,0.1099 0.0551,0.214 0.0626,0.2615 0.0104,0.0669 0.0163,0.1234 0.0193,0.1665 v 2.4446 c 0.004,0.0283 0.007,0.0699 -0.007,0.113 -0.0105,0.0312 -0.0239,0.0445 -0.0283,0.049 -0.0194,0.0178 -0.0403,0.0223 -0.0507,0.0238 h -0.803 c -0.7405,-0.003 -1.2962,-0.004 -1.5018,-0.003 -0.1713,0 -0.2562,0 -0.2726,0.001 -0.0983,0.007 -0.1982,0.003 -0.298,0.006 -0.0223,0 -0.0804,0.002 -0.1281,-0.0341 -0.0104,-0.007 -0.0358,-0.0253 -0.0462,-0.058 -0.0119,-0.0342 -0.002,-0.0639 0,-0.0698 0.0119,-0.0461 0.0164,-0.5425 0,-1.8428 0,-0.0892 -0.0179,-0.1665 -0.0238,-0.217 -0.0119,-0.0847 -0.0134,-0.1932 -0.0447,-0.2675 -0.0194,-0.052 -0.0566,-0.1189 -0.0983,-0.1605 -0.0313,-0.0327 -0.0894,-0.0966 -0.1848,-0.1456 -0.0938,-0.0476 -0.1743,-0.0595 -0.2592,-0.0729 -0.0894,-0.0133 -0.1699,-0.0148 -0.2354,-0.0133 h -4.8584 c -0.0819,-0.003 -0.1534,0 -0.21,0 -0.0418,0.001 -0.0805,0.003 -0.1222,0.0252 -0.0134,0.008 -0.0447,0.0238 -0.0685,0.0595 -0.007,0.0104 -0.0164,0.0267 -0.0254,0.0594 -0.006,0.0312 -0.0149,0.0847 -0.003,0.1546 v 2.3049 c 0,0.0179 -0.002,0.0431 -0.008,0.0714 -0.007,0.0312 -0.0134,0.0609 -0.0387,0.0906 -0.0268,0.0327 -0.0626,0.0461 -0.0805,0.0535 -0.0298,0.0104 -0.0551,0.0119 -0.0715,0.0134 h -2.6906 c -0.0298,0 -0.0581,-0.003 -0.0864,-0.005 -0.0179,0 -0.079,-0.004 -0.1282,-0.0505 -0.0268,-0.0252 -0.0402,-0.0535 -0.0447,-0.0683 -0.0104,-0.0268 -0.0119,-0.0491 -0.0134,-0.0966 -0.001,-0.0298 0,-0.055 0,-0.0729 v -4.9116 c -0.001,-0.0341 0.003,-0.0802 0.0328,-0.1114 0.0387,-0.0401 0.0998,-0.0327 0.2205,-0.0297 0.073,0.003 0.146,-0.009 0.2175,0 0.1967,0.0252 1.0012,-0.0104 3.957,0 0.2727,0.001 0.4097,0.001 0.4365,0.003 0.2339,0.003 3.1302,0.0506 3.811,-0.006 0.079,-0.006 0.2384,-0.0238 0.3904,-0.1293 0.0223,-0.0164 0.0998,-0.0728 0.1788,-0.1843 0.0357,-0.049 0.1385,-0.2066 0.1951,-0.6227 0.0388,-0.2942 0.0596,-0.4488 0.009,-0.6598 -0.0581,-0.2512 -0.1773,-0.4161 -0.2265,-0.4815 -0.0894,-0.1219 -0.1579,-0.1709 -0.1832,-0.1887 -0.0656,-0.0431 -0.1445,-0.0803 -0.301,-0.1115 -0.222,-0.0461 -0.3993,-0.0446 -0.435,-0.0431 -0.295,0.003 0.2518,0.003 -0.7494,-0.0327 -1.7237,-0.0609 -2.4091,-0.004 -4.7153,-0.003 -0.3472,0 -1.767,0 -2.0769,0.005 -0.0789,10e-4 -0.1579,-0.002 -0.2368,10e-4 -0.1312,0.004 -0.2235,0.0148 -0.3531,-0.009 -0.0701,-0.0119 -0.1222,-0.0298 -0.158,-0.0728 -0.0268,-0.0327 -0.0372,-0.0699 -0.0432,-0.0937 -0.0193,-0.0654 -0.0149,-0.1218 -0.0134,-0.1367 0.0119,-0.1545 -0.004,-0.3121 0.0134,-0.4651 0.0313,-0.2527 0.0179,-0.5975 -0.007,-1.2618 -0.005,-0.1456 -0.0119,-0.2838 0.0789,-0.3611 0.0358,-0.0312 0.0894,-0.0535 0.3859,-0.0609 0.1326,-0.005 0.2443,-0.003 0.3248,0 h 9.3904 c 0.1714,0.007 0.3978,0.0327 0.6526,0.1085 0.1534,0.0446 0.3635,0.1203 0.5944,0.2526 0.1848,0.1055 0.4857,0.2824 0.7256,0.6123 0.1177,0.1605 0.1877,0.3136 0.2071,0.3567 0.0193,0.046 0.07,0.1634 0.1117,0.3254 0.0238,0.0951 0.0387,0.1798 0.0477,0.2467 z m -0.0879,-7.2745 c -0.0388,-0.003 -0.0745,-0.0119 -0.0745,-0.0119 -0.0313,-0.006 -0.0983,-0.0238 -0.1877,-0.0788 -0.0283,-0.0178 -0.146,-0.0936 -0.2608,-0.2422 -0.0923,-0.1219 -0.1385,-0.2348 -0.1579,-0.2868 -0.0491,-0.1382 -0.0611,-0.2601 -0.07,-0.3612 -0.007,-0.0787 -0.007,-0.1397 -0.009,-0.156 -0.012,-1.0239 0.0312,-2.0479 0,-3.0703 0,-0.0253 -0.004,-0.1367 0.0223,-0.2794 0.0194,-0.1129 0.0447,-0.2378 0.1341,-0.3686 0.0149,-0.0222 0.0834,-0.1188 0.2101,-0.2021 0.1042,-0.0698 0.1951,-0.0966 0.3084,-0.1278 0.0446,-0.0119 0.1653,-0.0431 0.4573,-0.0698 0.1967,-0.0179 0.3442,-0.0208 0.3576,-0.0208 0.4827,-0.0119 0.9133,0.004 0.9133,0.004 0.3098,0.0119 0.1445,-0.004 1.5911,-0.0133 0.216,-0.002 0.5229,-0.002 0.9148,0.004 0.0715,0 0.2279,0.006 0.5408,0.0149 0.0313,0.001 0.2577,0.009 0.5512,0.0297 0.2309,0.0163 0.3248,0.0297 0.438,0.0802 0.0358,0.0164 0.1356,0.0654 0.2414,0.162 0.1207,0.11 0.1862,0.2289 0.2205,0.3032 0.0298,0.0698 0.073,0.1679 0.1221,0.2883 0.0358,0.0847 0.0537,0.1263 0.0462,0.1828 -0.0134,0.1011 -0.0864,0.1635 -0.0953,0.1694 -0.0164,0.0134 -0.0447,0.0327 -0.1088,0.0535 -0.1221,0.0387 -0.2279,0.0342 -0.2428,0.0342 -0.149,-0.006 -0.2995,0.0134 -0.447,0 -0.6615,-0.0535 -3.1227,0.052 -3.665,0 -0.0357,-0.003 -0.1877,-0.001 -0.4901,0.003 -0.0119,0 -0.0477,0 -0.0909,0.0119 -0.0447,0.0104 -0.1252,0.0326 -0.1713,0.1025 -0.0358,0.0535 -0.0358,0.1115 -0.0343,0.165 0,0.0416 0.006,0.0758 0.0119,0.0995 v 1.9305 c 0.003,0.0208 0.006,0.052 0,0.0906 -0.004,0.0357 -0.0119,0.0431 -0.0149,0.0743 -0.002,0.0283 -0.005,0.0639 0.0194,0.0981 0.0179,0.0283 0.0432,0.0402 0.0566,0.0446 0.0432,0.0164 0.0805,0.004 0.0894,0 h 3.2642 c 0.0164,-0.002 0.0462,-0.007 0.0775,-0.0282 0.0104,-0.008 0.0372,-0.0283 0.0551,-0.0654 0.005,-0.009 0.0149,-0.0327 0.0179,-0.0996 10e-4,-0.0535 -10e-4,-0.0936 -10e-4,-0.0936 -0.006,-0.0595 -0.003,-0.0966 10e-4,-0.2497 0.005,-0.2303 0.006,-0.6033 10e-4,-0.8069 -10e-4,-0.0521 -10e-4,-0.1056 -0.003,-0.1576 -0.003,-0.0564 -0.006,-0.1144 -0.003,-0.1976 0.002,-0.0342 0.005,-0.0862 0.0298,-0.1308 0.006,-0.0104 0.0179,-0.0312 0.0417,-0.049 0.0164,-0.0134 0.0313,-0.0194 0.0432,-0.0238 0.0313,-0.0134 0.0567,-0.0149 0.0835,-0.0178 0.0238,-0.003 0.0432,-0.003 0.0536,-0.003 0.0566,0 0.0849,0 0.1311,0.006 0.0894,0.009 0.2235,0.008 0.4708,0.008 0.0641,-0.002 0.149,-0.002 0.219,-0.003 0.073,0 0.1088,0 0.1207,0 0,0 0.1311,-0.003 0.4007,-0.003 0.006,0 0.0239,0 0.0462,0.006 0.0134,0.003 0.0298,0.007 0.0477,0.0208 0.007,0.006 0.0253,0.0193 0.0343,0.0416 0.006,0.0148 0.007,0.0297 0.007,0.0535 v 2.351 c -0.0313,0.1025 -0.0775,0.214 -0.1102,0.2705 -0.0313,0.0535 -0.0894,0.1516 -0.1982,0.2496 -0.0164,0.0134 -0.0894,0.0773 -0.2026,0.1353 -0.0402,0.0208 -0.146,0.0713 -0.3292,0.107 -0.1907,0.0356 -0.3412,0.0312 -0.38,0.0297 -0.2905,-0.007 -0.581,0.0149 -0.8715,0 -0.8537,-0.0476 -3.9287,0.0119 -4.1745,-0.006 z m 15.5464,5.2905 v 5.668 c -0.009,0.0788 -0.0268,0.1888 -0.0655,0.3151 -0.1282,0.4161 -0.3859,0.6702 -0.6243,0.9006 -0.222,0.2125 -0.5185,0.4993 -1.0101,0.6747 -0.3307,0.1189 -0.6242,0.1427 -0.8209,0.1427 h -9.1297 c -0.1266,-0.006 -0.3084,-0.0238 -0.5155,-0.0877 -0.3561,-0.1085 -0.5885,-0.2868 -0.7732,-0.4265 -0.1922,-0.1457 -0.4723,-0.3627 -0.6898,-0.7401 -0.1549,-0.269 -0.2116,-0.5023 -0.2771,-0.7788 -0.082,-0.3447 -0.1073,-0.6405 -0.1132,-0.8485 -0.0388,-2.1207 -0.0239,-3.7376 0,-4.5178 0.006,-0.1917 0.0223,-0.5974 0.2011,-1.0759 0.076,-0.2051 0.2115,-0.5573 0.5348,-0.9036 0.3591,-0.3834 0.7524,-0.5484 0.9952,-0.6479 0.304,-0.1234 0.5736,-0.1799 0.7658,-0.2066 h 9.0091 c 0.2666,0.0208 0.7702,0.0966 1.2916,0.4235 0.1252,0.0788 0.4857,0.3195 0.8001,0.7579 0.1162,0.162 0.2711,0.3835 0.3605,0.7178 0.0686,0.2586 0.0715,0.4845 0.0611,0.6331 z m 10.8326,-2.5323 c 0.0253,-0.002 0.2458,-0.0119 0.5423,0 0.2577,0.009 0.3859,0.0134 0.5274,0.0431 0.3159,0.0684 0.5304,0.2155 0.7479,0.3656 0.1281,0.0891 0.3456,0.2422 0.5661,0.5097 0.219,0.2645 0.3233,0.5008 0.4023,0.6777 0.0805,0.1828 0.1207,0.3225 0.1311,0.48 0.001,0.0386 0.0328,0.1055 0,0.1516 -0.0387,0.0535 -0.1311,0.049 -0.1669,0.0475 -0.2026,-0.009 -0.4097,0.0446 -0.6108,0.0119 -0.1594,-0.0252 -0.1177,0.007 -1.396,0.0149 -0.7166,0.004 -3.0735,0.006 -6.2707,0 -0.1564,-0.0179 -0.2845,-0.009 -0.371,0.003 -0.1296,0.0179 -0.213,0.0298 -0.3039,0.0892 -0.1132,0.0728 -0.1668,0.1724 -0.1937,0.2214 -0.0149,0.0283 -0.064,0.1278 -0.0804,0.321 -0.0149,0.1903 -0.0328,0.4028 0.0953,0.6049 0.0969,0.1531 0.2339,0.2318 0.3204,0.2824 0.1206,0.0713 0.2175,0.0951 0.2398,0.101 0.1401,0.0327 0.2518,0.0178 0.2741,0.0149 0.2027,-0.0194 2.6326,-0.0164 6.2305,0.001 0.0686,10e-4 0.1609,0.004 0.2697,0.0148 0.1088,0.009 0.289,0.0268 0.4976,0.0803 0.1117,0.0297 0.3322,0.0876 0.584,0.2363 0.301,0.1753 0.4783,0.3789 0.5244,0.4324 0.0745,0.0892 0.1997,0.2393 0.2876,0.4711 0.0104,0.0238 0.0432,0.113 0.0789,0.2839 0.0626,0.3091 0.0641,0.5573 0.0656,0.6256 0.007,1.021 0.067,1.4311 -0.0343,2.1638 -0.0208,0.1471 -0.0536,0.3581 -0.1311,0.6138 -0.0596,0.1991 -0.1132,0.3774 -0.2369,0.5855 -0.0774,0.1308 -0.2279,0.3789 -0.5259,0.5825 -0.2711,0.1858 -0.5378,0.2408 -0.7047,0.275 -0.1266,0.0252 -0.2339,0.0356 -0.3143,0.0401 h -7.5311 c -0.1878,0.007 -0.444,0.009 -0.7494,-0.0208 -0.2652,-0.0268 -0.4693,-0.0476 -0.7286,-0.1308 -0.1772,-0.0579 -0.5467,-0.1813 -0.8909,-0.5082 -0.2413,-0.2319 -0.3575,-0.4548 -0.3814,-0.5023 -0.0983,-0.1932 -0.1341,-0.3567 -0.1564,-0.4563 -0.0328,-0.153 -0.0671,-0.3864 -0.0402,-0.6732 h 8.2179 c 0.1922,0 0.3531,-0.0134 0.4723,-0.0267 0.2145,-0.0253 0.3248,-0.0402 0.4514,-0.1011 0.073,-0.0342 0.2116,-0.104 0.3173,-0.2571 0.1147,-0.1679 0.1222,-0.3388 0.1267,-0.4414 0.007,-0.1768 -0.0343,-0.3091 -0.0566,-0.3745 -0.0313,-0.0966 -0.0626,-0.1917 -0.149,-0.2868 -0.0835,-0.0906 -0.1758,-0.1322 -0.2175,-0.1516 -0.0969,-0.0431 -0.1773,-0.052 -0.2816,-0.0639 -0.079,-0.009 -0.1892,-0.0163 -0.3218,-0.004 h -5.8074 c -0.1788,0.003 -0.4321,-0.009 -0.727,-0.0818 -0.0269,-0.006 -0.161,-0.0386 -0.3159,-0.0966 -0.216,-0.0787 -0.6555,-0.2407 -1.0608,-0.642 -0.4797,-0.474 -0.6361,-1.0105 -0.6972,-1.2305 -0.0715,-0.2585 -0.0939,-0.4815 -0.1013,-0.636 v -1.3717 c -0.006,-0.1783 0.007,-0.4443 0.0998,-0.7505 0.0328,-0.1055 0.0968,-0.3091 0.2399,-0.5305 0.2458,-0.379 0.5706,-0.5677 0.7598,-0.6732 0.5036,-0.2854 0.9922,-0.3314 1.2693,-0.3344 4.9031,0.0163 6.895,0.0134 7.2153,0 z m -14.1609,2.9083 c -0.1639,-0.2437 -0.432,-0.3136 -0.511,-0.3344 -0.1043,-0.0282 -0.1967,-0.0341 -0.2592,-0.0327 h -5.4931 c -0.1713,-0.0193 -0.3113,-0.004 -0.4067,0.0119 -0.1058,0.0193 -0.2384,0.0431 -0.3844,0.1353 -0.1504,0.0921 -0.2339,0.2051 -0.2532,0.2333 -0.0298,0.0416 -0.1088,0.1605 -0.1594,0.4369 -0.0462,0.2556 -0.0343,0.4577 -0.0328,0.48 0.0194,0.3433 0.0164,1.2216 0,2.4937 -0.0209,0.2259 -0.006,0.4102 0.0119,0.5365 0.0283,0.1917 0.0462,0.3106 0.1311,0.4429 0.1073,0.1709 0.2548,0.2526 0.3173,0.2883 0.2146,0.1159 0.4187,0.1203 0.5155,0.1144 h 5.6227 c 0.0834,0.007 0.2026,0.0104 0.3441,-0.0134 0.1326,-0.0238 0.2667,-0.0475 0.4008,-0.1501 0.0268,-0.0208 0.149,-0.1174 0.222,-0.2883 0.0283,-0.0669 0.0387,-0.1204 0.0566,-0.217 0.0164,-0.0951 0.0313,-0.2154 0.0328,-0.3566 v -2.9574 c 0.0119,-0.1144 0.0163,-0.2883 -0.0298,-0.4919 -0.0283,-0.1233 -0.0507,-0.2229 -0.1252,-0.3314 z m 0.1252,0.3314 c -0.0283,-0.1233 -0.0507,-0.2229 -0.1252,-0.3314 -0.1639,-0.2437 -0.432,-0.3136 -0.511,-0.3344 -0.1043,-0.0282 -0.1967,-0.0341 -0.2592,-0.0327 h -5.4931 c -0.1713,-0.0193 -0.3113,-0.004 -0.4067,0.0119 -0.1058,0.0193 -0.2384,0.0431 -0.3844,0.1353 -0.1504,0.0921 -0.2339,0.2051 -0.2532,0.2333 -0.0298,0.0416 -0.1088,0.1605 -0.1594,0.4369 -0.0462,0.2556 -0.0343,0.4577 -0.0328,0.48 0.0194,0.3433 0.0164,1.2216 0,2.4937 -0.0209,0.2259 -0.006,0.4102 0.0119,0.5365 0.0283,0.1917 0.0462,0.3106 0.1311,0.4429 0.1073,0.1709 0.2548,0.2526 0.3173,0.2883 0.2146,0.1159 0.4187,0.1203 0.5155,0.1144 h 5.6227 c 0.0834,0.007 0.2026,0.0104 0.3441,-0.0134 0.1326,-0.0238 0.2667,-0.0475 0.4008,-0.1501 0.0268,-0.0208 0.149,-0.1174 0.222,-0.2883 0.0283,-0.0669 0.0387,-0.1204 0.0566,-0.217 0.0164,-0.0951 0.0313,-0.2154 0.0328,-0.3566 v -2.9574 c 0.0119,-0.1144 0.0163,-0.2883 -0.0298,-0.4919 z m 0,0 c -0.0283,-0.1233 -0.0507,-0.2229 -0.1252,-0.3314 -0.1639,-0.2437 -0.432,-0.3136 -0.511,-0.3344 -0.1043,-0.0282 -0.1967,-0.0341 -0.2592,-0.0327 h -5.4931 c -0.1713,-0.0193 -0.3113,-0.004 -0.4067,0.0119 -0.1058,0.0193 -0.2384,0.0431 -0.3844,0.1353 -0.1504,0.0921 -0.2339,0.2051 -0.2532,0.2333 -0.0298,0.0416 -0.1088,0.1605 -0.1594,0.4369 -0.0462,0.2556 -0.0343,0.4577 -0.0328,0.48 0.0194,0.3433 0.0164,1.2216 0,2.4937 -0.0209,0.2259 -0.006,0.4102 0.0119,0.5365 0.0283,0.1917 0.0462,0.3106 0.1311,0.4429 0.1073,0.1709 0.2548,0.2526 0.3173,0.2883 0.2146,0.1159 0.4187,0.1203 0.5155,0.1144 h 5.6227 c 0.0834,0.007 0.2026,0.0104 0.3441,-0.0134 0.1326,-0.0238 0.2667,-0.0475 0.4008,-0.1501 0.0268,-0.0208 0.149,-0.1174 0.222,-0.2883 0.0283,-0.0669 0.0387,-0.1204 0.0566,-0.217 0.0164,-0.0951 0.0313,-0.2154 0.0328,-0.3566 v -2.9574 c 0.0119,-0.1144 0.0163,-0.2883 -0.0298,-0.4919 z"
       fill="#004445"
       id="path136" />
    <path
       d="m 20.38678,66.321008 v 67.170702 l 31.9451,6.4333 31.1524,-6.4333 h 0.1818 V 66.321008 Z m 62.071,66.011602 h -0.1743 l -29.9636,6.1884 -30.7248,-6.1884 V 67.726808 h 60.8627 z"
       fill="#004445"
       id="path138" />
    <path
       d="m 67.91068,96.405806 c -3.732,0.0119 -6.2737,-0.0149 -8.0063,-0.0461 -0.4708,-0.009 -1.7759,-0.0342 -3.5086,0.0297 -2.0381,0.0743 -3.2061,0.2185 -3.5547,0.2631 -1.0608,0.1352 -1.7729,0.2912 -3.1972,0.6048 -0.2101,0.0461 -0.7658,0.1709 -1.4452,0.4488 -0.587,0.2408 -0.87,0.434 -0.9505,0.4904 -0.1743,0.1219 -0.5199,0.3849 -0.8566,0.8129 -0.146,0.1858 -0.1222,0.1888 -0.4127,0.6361 -0.2652,0.408704 -0.3278,0.472604 -0.876,1.263204 -0.2682,0.3864 -0.4023,0.5796 -0.4753,0.6925 -0.067,0.104 -0.3769,0.5885 -0.733,1.2989 -0.3978,0.795 -0.6317,1.4311 -0.7837,1.8428 0,0 -0.2726,0.749 -0.5125,1.6124 -0.0804,0.2898 -0.0625,0.318 -0.1132,0.4235 0,0 -0.0343,0.0714 -0.0462,0.1828 -0.007,0.0639 0,0.1011 0.0209,0.1308 0.0223,0.0297 0.0551,0.0401 0.064,0.0431 0.085,0.0267 0.1758,-0.0372 0.1893,-0.0461 0.1772,-0.1144 1.2335,-0.2051 1.3676,-0.2184 0.7032,-0.0639 1.6895,-0.269 3.1004,-0.483 2.9811,-0.4503 6.2781,-0.6955 6.2781,-0.6955 2.1856,-0.1635 3.6412,-0.1873 5.5229,-0.2185 0.283,-0.004 1.241,-0.0178 2.4939,0.0684 1.393,0.0966 2.0888,0.1441 2.7592,0.4116 0.1296,0.0521 0.593,0.2423 1.2366,0.4206 0.6838,0.1887 1.0056,0.2081 1.32,0.0877 0.0909,-0.0342 0.3397,-0.1397 0.5453,-0.3849 0.2443,-0.2883 0.292,-0.6108 0.3322,-0.9363 0.1728,-1.3999 0.1639,-2.1088 0.1624,-2.2797 -0.006,-0.5558 0,-1.3493 0.0536,-2.3242 0.007,-1.377704 0.0149,-2.755304 0.0209,-4.132904 z"
       fill="#004445"
       id="path140" />
    <path
       d="m 65.22778,87.315208 c -0.4946,0.0966 -0.7419,0.1442 -0.8909,0.1962 -0.6093,0.214 -0.9132,0.321 -1.3364,0.5409 -0.6972,0.3641 -0.7836,0.2868 -5.2531,2.1148 -1.3081,0.535 -2.1916,0.905 -3.2791,1.2765 -0.1177,0.0401 -0.4515,0.1531 -1.1532,0.3924 -1.7192,0.5855 -1.5777,0.5439 -1.7476,0.5974 -1.3512,0.4191 -2.0261,0.6286 -2.8038,0.699898 -0.2026,0.0193 -0.4708,0.0357 -0.806,0.1635 -0.6258,0.2408 -1.0161,0.691 -1.107,0.801 -0.0551,0.0654 -0.0968,0.1219 -0.1236,0.159 0.0983,0.0446 0.2398,0.1011 0.4127,0.1486 0.216,0.0595 0.3814,0.0773 0.5869,0.0981 0.1788,0.0179 0.4142,0.0342 0.6943,0.0327 -0.1326,0.0758 -0.3114,0.1828 -0.5199,0.3195 -0.1937,0.1278 -0.2906,0.1903 -0.4038,0.2809 -0.2622,0.2096 -0.3784,0.3626 -0.4812,0.4221 -0.006,0.003 -0.0477,0.0267 -0.0819,0.0743 -0.0179,0.0237 -0.0403,0.055 -0.0343,0.0817 0.0119,0.055 0.1371,0.0713 0.1862,0.0758 0.2503,0.0282 0.4842,-0.006 0.5647,-0.0178 0,0 0.4201,-0.0625 0.7851,-0.0253 0.0373,0.005 0.1088,0.0119 0.1162,0.0431 0.007,0.0357 -0.0775,0.0802 -0.1102,0.0996 -0.2637,0.1456 -0.5096,0.3566 -0.6243,0.4547 -0.149,0.1278 -0.2443,0.2452 -0.3352,0.3567 -0.1132,0.1382 -0.1698,0.2303 -0.2115,0.3091 -0.0313,0.0594 -0.0537,0.11 -0.0686,0.1471 0.079,-0.0104 0.2041,-0.0267 0.3561,-0.052 0.4455,-0.0758 0.7702,-0.165 0.8403,-0.1843 0.6421,-0.1724 2.4865,-0.4666 2.7591,-0.5097 3.4073,-0.5424 6.7117,-0.6688 6.7117,-0.6688 1.3335,-0.0505 3.1391,-0.0698 4.0837,-0.0297 0.6064,0.0253 1.2127,0.006 1.8176,0.0401 0.07,0.004 0.2652,0.0164 0.5259,-10e-4 0.1907,-0.0134 0.4276,-0.0298 0.7062,-0.1145 0.4454,-0.1367 0.733,-0.37 0.7926,-0.4191 0.1579,-0.1292 0.4097,-0.3373 0.5542,-0.7059 0.0492,-0.1263 0.1356,-0.3507 0.0953,-0.6449 -0.0432,-0.3181 -0.2056,-0.5321 -0.283,-0.6212 -0.1877,-0.213998 -0.4202,-0.316598 -0.4946,-0.340298 -0.0477,-0.0149 -0.0924,-0.0342 -0.1401,-0.0506 -0.0521,-0.0163 -0.0864,-0.0267 -0.1222,-0.0564 -0.0193,-0.0179 -0.0461,-0.0417 -0.0476,-0.0773 0,-0.0297 0.0178,-0.0535 0.0268,-0.0624 0.1549,-0.1813 0.5453,-0.5692 0.5453,-0.5692 0.0908,-0.0907 0.1445,-0.162 0.2339,-0.2839 0,0 0.2577,-0.3492 0.511,-0.9942 0.0119,-0.0297 0.0387,-0.101 0.0581,-0.1976 0.0179,-0.0862 0.0313,-0.1546 0.0193,-0.2408 -0.004,-0.0356 -0.0238,-0.1397 -0.1013,-0.2392 -0.073,-0.0952 -0.1609,-0.1338 -0.286,-0.1873 -0.1415,-0.0609 -0.2533,-0.0862 -0.3963,-0.1159 -0.1952,-0.0416 -0.2354,-0.0357 -0.4306,-0.0847 -0.1445,-0.0372 -0.2056,-0.0624 -0.2517,-0.0847 -0.1073,-0.052 -0.1863,-0.113 -0.2369,-0.159 0.0774,-0.0669 0.1817,-0.162 0.2964,-0.2869 0.1073,-0.1159 0.1907,-0.205 0.2801,-0.3432 0.0403,-0.0625 0.1326,-0.2126 0.2041,-0.4221 0.0373,-0.1055 0.0552,-0.1991 0.0939,-0.3864 0.001,-0.0089 0.0313,-0.1531 0.0417,-0.3388 0.005,-0.0699 0.005,-0.1338 -0.0238,-0.2066 -0.009,-0.0238 -0.0313,-0.0788 -0.079,-0.1248 -0.0417,-0.0402 -0.1087,-0.0803 -0.292,-0.0951 -0.1981,-0.0164 -0.3441,0.0118 -0.3441,0.0118 z"
       fill="#004445"
       id="path142" />
    <path
       d="m 60.89368,64.790208 c -3.9704,0.645 -7.2078,1.9736 -9.9715,3.2026 -1.2291,0.5469 -2.9707,1.3434 -5.0505,2.3718 0,0 -2.783,1.3999 -6.3333,3.5964 -0.5051,0.3121 -1.2932,0.8084 -2.2199,1.602 -1.2485,1.07 -1.5569,1.4668 -1.6984,1.6868 -0.1073,0.1664 -0.219,0.3418 -0.3203,0.6003 -0.1922,0.4964 -0.2086,0.963 -0.1773,1.3821 0.1639,2.1831 1.1353,4.4093 1.1353,4.4093 0.3679,0.8426 0.8983,2.0419 1.895,3.4686 1.3007,1.8636 2.6147,2.999 3.3596,3.6335 0,0 0.7539,0.642 2.71,1.8517 0.1192,0.0743 0.368,0.2244 0.7256,0.3329 0.5244,0.157598 0.9788,0.1293 1.2559,0.0996 1.0593,-0.1144 1.9785,-0.5142 2.6609,-0.7758 0.8313,-0.318 0.7359,-0.2095 2.5163,-0.7579 2.8903,-0.8901 3.4072,-1.2424 8.0019,-2.8503 1.3468,-0.4711 2.5923,-1.2097 3.9436,-1.6704 0.3873,-0.1323 1.1546,-0.3834 1.7342,-1.0953 0.4216,-0.5171 0.5691,-1.0477 0.6406,-1.385 0.7911,-3.7094 0.8268,-4.0883 0.8268,-4.0883 0.4529,-4.8269 0.4246,-4.1537 0.5245,-5.5551 0.0417,-0.5855 0.1787,-2.5844 0.0536,-5.0543 -0.0343,-0.6836 -0.076,-1.1473 -0.2563,-1.7194 -0.1013,-0.321 -0.6942,-2.1088 -2.2288,-2.9797 -1.0875,-0.6182 -2.2407,-0.5439 -3.729,-0.3031 z"
       fill="#004445"
       id="path144" />
    <path
       d="m 50.24448,51.290408 c -0.7762,-0.2898 -1.7818,-0.6658 -3.2463,-0.7044 -0.6272,-0.0164 -1.5599,-0.0327 -2.6921,0.3433 -0.9938,0.3299 -1.6552,0.801 -1.8355,0.9347 -0.1892,0.1397 -1.0772,0.8085 -1.8027,2.0538 -0.6511,1.1176 -0.8179,2.0954 -0.9952,3.1357 -0.2101,1.235 -0.1892,2.1593 -0.1579,3.4879 0.0327,1.4326 0.1713,2.3213 0.2636,2.8251 0.1639,0.8887 0.3427,1.4207 0.4574,1.7313 0.1565,0.4191 0.3263,0.8798 0.6809,1.4237 0.1207,0.1858 0.6183,0.9288 1.5003,1.5753 0.5244,0.3849 0.9266,0.5469 1.0637,0.5989 0.0834,0.0312 0.3129,0.1159 0.6064,0.1783 0.3307,0.0714 0.9192,0.1531 1.7848,0.006 1.2067,-0.2051 2.1304,-0.7133 2.6564,-1.0091 1.2201,-0.6851 2.0291,-1.446 2.3807,-1.7982 0.5006,-0.5008 1.5286,-1.5515 2.2303,-3.2456 0.9729,-2.3481 0.7032,-4.4539 0.5781,-5.3486 -0.1699,-1.2097 -0.526,-2.2009 -0.6839,-2.6319 -0.2905,-0.798 -0.5661,-1.3226 -0.9073,-1.9735 -0.1698,-0.324 -0.2518,-0.4577 -0.3695,-0.6049 -0.4097,-0.5067 -0.9266,-0.7579 -1.5136,-0.9778 z"
       fill="#004445"
       id="path146" />
    <path
       d="m 33.05768,77.026808 c -0.0536,0.1486 -0.1326,0.3597 -0.2443,0.6034 -0.228,0.5008 -0.4529,0.8501 -0.5915,1.0655 -0.3188,0.4964 -0.6198,1.0046 -0.9505,1.4936 -0.5855,0.8679 -0.9848,1.6094 -1.6627,2.8697 -0.6808,1.2646 -1.1129,2.1979 -1.6403,3.3333 -0.2801,0.6034 -0.7479,1.6303 -1.1457,2.7404 -0.1534,0.428 -0.2264,0.6717 -0.3516,1.0953 0,0 -0.1519,0.5127 -0.3173,1.3598 -0.0894,0.4592 -0.1132,0.6687 -0.005,0.8931 0.1237,0.2541 0.3472,0.3849 0.4187,0.425 0.3069,0.172398 0.6034,0.1397 0.6883,0.1293 0.298,-0.0371 0.4976,-0.1843 0.6555,-0.3046 0.2637,-0.2007 0.4097,-0.4176 0.4812,-0.5217 0.2816,-0.4161 0.6168,-0.795 0.885,-1.22 0.8492,-1.345 0.8403,-1.2053 1.6671,-2.5472 0.5274,-0.8575 0.9267,-1.5575 1.1621,-1.9781 0.3829,-0.6851 0.6794,-1.2498 0.8701,-1.6183 0.7106,-1.3791 1.0667,-2.0687 1.3423,-2.9039 0.2831,-0.856 0.4648,-1.4252 0.4276,-2.2247 -0.0432,-0.9556 -0.3725,-1.6451 -0.4812,-1.8591 -0.3397,-0.6673 -0.7747,-1.1072 -1.0593,-1.3539 l -0.149,0.5187 z"
       fill="#004445"
       id="path148" />
    <path
       d="m 14.39168,83.390408 c 0.7032,0.107 1.3393,0.315 2.2094,0.688 0.3591,0.1531 0.952,0.4191 2.4508,1.2305 1.3349,0.7223 2.0902,1.1324 3.0914,1.7848 1.0652,0.6926 1.5077,1.0344 1.6373,1.1399 0.7122,0.5796 0.9163,0.8738 1.3602,1.2037 0.1014,0.0743 0.2846,0.2036 0.4574,0.4325 0.1028,0.1352 0.0969,0.1694 0.2116,0.3032 0.1832,0.214 0.2905,0.2407 0.3069,0.3685 0.0194,0.1501 -0.1088,0.2794 -0.1415,0.3136 -0.1043,0.107 -0.228,0.1382 -0.3114,0.162 -0.4455,0.1233 -0.4827,0.1872 -0.7226,0.2422 -1.0593,0.2422 -2.2318,-0.0684 -2.2318,-0.0684 -0.6272,-0.1664 -1.3676,-0.6464 -2.8456,-1.6094 -0.8015,-0.5216 -1.1084,-0.7535 -1.8712,-1.1948 -0.6391,-0.3701 -0.5661,-0.2898 -1.3528,-0.7312 -0.1981,-0.1115 -1.539,-0.8679 -2.6504,-1.6555 -0.0804,-0.0565 -0.3799,-0.2705 -0.7583,-0.5499 -0.5959,-0.4399 -0.4767,-0.37 -0.6853,-0.5127 -0.1788,-0.1234 -0.2801,-0.2036 -0.4812,-0.3671 -0.076,-0.0609 -0.1818,-0.1486 -0.2771,-0.2942 -0.0552,-0.0847 -0.1058,-0.165 -0.1133,-0.2794 -0.009,-0.1531 0.0656,-0.2675 0.0879,-0.3032 0.0924,-0.1367 0.2324,-0.2051 0.4127,-0.2615 0.4127,-0.1278 0.7732,-0.11 0.8298,-0.107 1.3752,0.0698 1.2768,0.052 1.3856,0.0683 z"
       fill="#004445"
       id="path150" />
    <path
       d="m 10.50008,81.541708 c -1.0339,-0.1769 -2.6325,-0.0178 -2.6325,-0.0178 -0.9445,0.0936 -0.6674,0.1025 -2.421,0.3225 -0.5006,0.0624 -0.8924,0.1084 -1.3587,0.2452 -0.2399,0.0698 -0.4827,0.1337 -0.7211,0.205 -0.2458,0.0743 -0.3575,0.113 -0.5497,0.1397 -0.231,0.0327 -0.3457,0.0491 -0.4932,0.0283 -0.0879,-0.0119 -0.1624,-0.0327 -0.2741,-0.0134 -0.0894,0.0149 -0.149,0.0446 -0.2443,0.0951 -0.0596,0.0312 -0.2399,0.1293 -0.4395,0.327 -0.0879,0.0876 -0.1326,0.1322 -0.158,0.1976 -0.0566,0.1501 0,0.2957 0.0149,0.3374 0.0239,0.0609 0.073,0.159 0.3055,0.3388 0.2294,0.1783 0.4275,0.2764 0.4409,0.2823 0.3949,0.1903 0.8016,0.272 1.1174,0.3077 0.3755,0.0416 0.6451,0.0223 1.1025,-0.0134 0.4365,-0.0327 0.4797,-0.0639 1.0623,-0.1248 0.2383,-0.0253 0.648,-0.0669 1.1248,-0.0833 0.4544,-0.0163 0.4842,0.0075 1.3587,0.0194 0.6928,0.0089 1.0474,0.0119 1.4303,-0.0179 0.432,-0.0342 0.7657,-0.0639 1.2037,-0.1902 0.5111,-0.1471 0.8358,-0.3329 1.0891,-0.4785 0,0 0.1788,-0.1026 0.5989,-0.4845 0.0268,-0.0253 0.0924,-0.0862 0.1296,-0.1858 0.009,-0.0237 0.0269,-0.0743 0.0239,-0.1367 -0.005,-0.107 -0.0656,-0.1857 -0.1058,-0.2318 -0.2473,-0.2883 -0.5349,-0.4667 -0.5349,-0.4667 -0.1981,-0.1218 -0.4514,-0.2466 -0.7627,-0.3328 0,0 -0.1461,-0.0402 -0.301,-0.0669 z"
       fill="#004445"
       id="path152" />
    <path
       d="m 5.96208,79.437408 c 0.2071,-0.8649 0.4783,-1.8368 0.8671,-2.8756 0,0 0.4857,-1.3004 1.1204,-2.5264 0.2815,-0.5439 0.4886,-0.8724 0.6927,-1.2439 0.0641,-0.1159 0.1073,-0.2006 0.1714,-0.2824 0.0313,-0.0416 0.0581,-0.0862 0.0894,-0.1278 0.0357,-0.0475 0.0536,-0.0668 0.0566,-0.101 0.006,-0.0491 -0.0209,-0.0892 -0.0343,-0.1115 -0.0447,-0.0669 -0.1028,-0.0906 -0.1624,-0.1233 -0.0789,-0.0431 -0.1445,-0.1041 -0.219,-0.1546 -0.2637,-0.1783 -0.5319,-0.3537 -0.7941,-0.535 0,0 -0.1847,-0.1278 -0.6272,-0.3225 -0.0179,-0.0074 -0.0641,-0.0282 -0.1207,-0.0208 -0.0685,0.0089 -0.1147,0.052 -0.1326,0.0684 -0.0759,0.0713 -0.0923,0.1605 -0.1177,0.2586 -0.0298,0.1159 -0.0804,0.2259 -0.1102,0.3403 -0.0909,0.3507 -0.146,0.4443 -0.3367,1.1562 -0.0671,0.2511 -0.1922,0.7326 -0.3248,1.3464 -0.0849,0.3953 -0.2771,1.3241 -0.4291,2.5323 -0.1385,1.0938 -0.1341,1.5396 -0.1907,2.0702 -0.0178,0.162 -0.0134,0.324 -0.0253,0.4859 0,0.0194 -0.007,0.0981 0.006,0.2007 0.009,0.0683 0.0149,0.1144 0.0432,0.1694 0.0149,0.0297 0.0566,0.107 0.146,0.162 0.073,0.046 0.143,0.055 0.2205,0.0668 0.0432,0.006 0.0789,0.0075 0.1028,0.0075 0,0 0.0834,-0.3329 0.1102,-0.4444 z"
       fill="#004445"
       id="path154" />
    <path
       d="m 4.05508,79.125308 c 0.0194,-0.0594 0.0432,-0.1427 0.0656,-0.2452 0.0268,-0.1308 0.0372,-0.2333 0.0432,-0.2987 0.0253,-0.2794 0.0298,-0.4785 0.0402,-0.6836 0.0104,-0.1992 0.0208,-0.2853 0.0357,-0.4875 0.0701,-0.8827 0.0835,-1.7863 0.0835,-1.7863 0,-0.0535 0.007,-0.6078 -0.0105,-1.1041 -0.009,-0.217 -0.0134,-0.1932 -0.0223,-0.4533 -0.005,-0.1204 -0.0268,-0.2408 -0.0268,-0.3611 0,-0.0164 0,-0.0773 -0.0224,-0.1501 -0.004,-0.0149 -0.0119,-0.0387 -0.0268,-0.0639 -0.0343,-0.0639 -0.0834,-0.0996 -0.1028,-0.113 0,0 -0.1251,-0.0921 -0.3665,-0.2883 -0.0596,-0.0475 -0.0998,-0.0862 -0.1803,-0.1635 -0.2651,-0.2526 -0.4558,-0.5008 -0.508,-0.5691 -0.0715,-0.0951 -0.2965,-0.3998 -0.5125,-0.8456 -0.0953,-0.1962 -0.2026,-0.4503 -0.295,-0.755 -0.0253,0.1011 -0.0551,0.2274 -0.0834,0.373 -0.0149,0.0818 -0.0387,0.2096 -0.0581,0.376 -0.0104,0.0907 -0.0283,0.2497 -0.0298,0.4563 -0.003,0.2764 0.0253,0.4859 0.0328,0.5454 0.0119,0.0832 0.0283,0.1828 0.2011,0.8039 0.0864,0.3121 0.0983,0.3448 0.152,0.5454 0.07,0.2586 0.1117,0.437 0.14,0.5529 0.0939,0.3849 0.1892,0.7103 0.3784,1.3613 0.0402,0.1382 0.1445,0.4933 0.2861,0.9555 0.0894,0.2928 0.2294,0.749 0.4261,1.3435 0.1177,0.3552 0.219,0.6524 0.2964,0.8708 l 0.0656,0.1858 z"
       fill="#004445"
       id="path156" />
    <path
       d="m 0.65238,75.637308 c -0.1341,0.2393 -0.2503,0.4384 -0.3382,0.59 -0.0685,0.1174 -0.1326,0.2274 -0.2205,0.3745 -0.0298,0.049 -0.0208,0.0342 -0.2369,0.3864 -0.1043,0.1694 -0.1147,0.1872 -0.1445,0.2289 -0.1251,0.1738 -0.2145,0.2496 -0.2741,0.2912 -0.0432,0.0312 -0.0805,0.052 -0.1058,0.0669 v 0.0773 c 0.0894,0.0683 0.2279,0.1798 0.3888,0.3254 0.2354,0.2155 0.371,0.3745 0.6034,0.6257 0.1326,0.1427 0.3293,0.3507 0.5811,0.6019 l 2.1677,2.4 c -0.008,-0.0267 -0.0149,-0.0668 -0.0164,-0.1144 0,-0.0401 0,-0.0832 0.0194,-0.1323 0.0268,-0.0653 0.0745,-0.1025 0.1013,-0.1248 0.0119,-0.0104 0.0402,-0.0238 0.0923,-0.0535 0.0924,-0.0505 0.1222,-0.0624 0.1684,-0.0981 0.0402,-0.0312 0.0551,-0.0505 0.0596,-0.0564 0.0119,-0.0164 0.0417,-0.055 0.0462,-0.1115 0.003,-0.0312 -0.003,-0.055 -0.0105,-0.0817 -0.004,-0.0194 -0.0119,-0.0387 -0.0268,-0.0729 -0.0268,-0.0579 -0.0506,-0.0995 -0.0521,-0.1025 -0.0358,-0.0609 -0.0671,-0.1248 -0.1013,-0.1872 -0.0239,-0.0417 -0.0954,-0.1784 -0.2414,-0.4503 -0.2786,-0.5232 -0.6198,-1.1711 -0.6198,-1.1711 -0.207,-0.3938 -0.3665,-0.6985 -0.4424,-0.8426 -0.2578,-0.4919 -0.4306,-0.8248 -0.6392,-1.232 -0.1653,-0.3225 -0.3918,-0.7683 -0.66,-1.3108 l -0.0998,0.1709 z"
       fill="#004445"
       id="path158" />
    <path
       d="m 68.27138,65.612008 c -0.0268,0.0045 -0.1475,0.0297 -0.2875,0.1397 -0.2295,0.1813 -0.7241,0.7609 -0.6898,1.5991 0.006,0.156 0.0238,0.4993 0.2279,0.856 0.1148,0.2006 0.2622,0.3596 0.8016,0.7594 0.508,0.3759 0.9117,0.6301 0.9684,0.6657 0.9639,0.6079 0.6808,0.4563 1.4958,0.9645 1.3751,0.8575 2.4775,1.4742 2.783,1.6451 0.0596,0.0327 -0.001,1e-4 2.0112,1.0715 0,0 1.0295,0.5484 2.6594,1.2632 0.0939,0.0416 0.3397,0.1472 0.6794,0.2274 0.2547,0.0595 0.6287,0.1442 1.0905,0.0728 0.2116,-0.0327 0.4231,-0.0654 0.6526,-0.2125 0.283,-0.1843 0.4171,-0.4324 0.4991,-0.5929 0.2234,-0.4295 0.2145,-0.8293 0.21,-0.9318 -0.0253,-0.5648 -0.3143,-0.9497 -0.4871,-1.1815 -0.225,-0.3002 -0.4485,-0.4696 -0.7345,-0.6851 -0.2816,-0.211 -0.7047,-0.4889 -1.2768,-0.7312 l -3.1763,-1.5425 -6.5136,-3.0689 c -0.1848,-0.1337 -0.3546,-0.208 -0.4708,-0.2496 -0.1564,-0.055 -0.2846,-0.0996 -0.4395,-0.0699 z"
       fill="#004445"
       id="path160" />
    <path
       d="m 80.82788,76.202108 c -0.0194,-0.0208 -0.0865,-0.0966 -0.1475,-0.211 -0.0432,-0.0832 -0.1028,-0.1962 -0.0864,-0.3299 0.0104,-0.0877 0.0476,-0.1486 0.0625,-0.1724 0.2593,-0.428 0.4291,-0.911 0.7271,-1.3123 0.2234,-0.3001 0.1981,-0.364 2.5804,-4.8075 1.0786,-2.0122 0.8387,-1.5411 1.168,-2.1668 0.517,-0.9823 0.7479,-1.4564 1.2217,-2.2395 0.5199,-0.859 0.8417,-1.2766 1.1367,-1.6169 0.2816,-0.324 0.5751,-0.6584 1.0459,-1.0106 0.3024,-0.2259 0.8328,-0.6167 1.6298,-0.8441 0,0 0.581,-0.1664 1.466,-0.159 0,0 0.201,0.0015 0.481,0.0728 0.018,0.0045 0.048,0.0134 0.084,0.0312 0.004,0.003 0.08,0.0401 0.135,0.1055 0.07,0.0818 0.084,0.1843 0.09,0.2512 0.029,0.3626 -0.111,0.8783 -0.111,0.8783 -0.18,0.6672 -0.165,0.6241 -0.175,0.6583 -0.321,0.9734 -0.862,1.8874 -0.862,1.8874 -1.209,2.0434 -1.9691,3.1684 -1.9691,3.1684 -0.7225,1.0685 -1.2976,1.8636 -1.7148,2.4372 -0.1519,0.2095 -0.7404,0.9927 -1.9129,2.5516 -0.8641,1.1503 -1.3051,1.7358 -1.7476,2.2441 -0.6123,0.7044 -0.9446,0.9585 -1.0995,1.232 -0.0194,0.0341 -0.0924,0.1679 -0.2443,0.266 -0.0239,0.0148 -0.158,0.0995 -0.3367,0.1085 -0.0567,0.0029 -0.222,0.0044 -0.5811,-0.2259 -0.2771,-0.1784 -0.4648,-0.3849 -0.8432,-0.7981 z"
       fill="#004445"
       id="path162" />
    <path
       d="m 101.63208,56.592908 c -0.26,-0.1115 -0.504,-0.1174 -0.861,-0.0981 -0.495,0.0268 -0.78,0.0713 -0.78,0.0713 -1.564,0.2438 -1.452,0.2215 -1.57,0.2438 -0.866,0.1634 -1.52,0.3299 -1.712,0.3804 -0.843,0.2185 -1.5,0.4369 -1.855,0.5588 -0.719,0.2497 -1.306,0.4904 -1.717,0.6687 -1.13,0.4905 -0.982,0.5291 -1.538,0.7342 -0.293,0.1085 -0.544,0.3121 -0.822,0.4518 -0.06,0.0297 -0.181,0.0906 -0.236,0.2184 -0.047,0.1144 -0.019,0.2259 0.02,0.3626 0.029,0.107 0.08,0.2913 0.226,0.4563 0.07,0.0802 0.201,0.1991 0.574,0.315 0.199,0.0624 0.52,0.1397 1.16,0.1471 0.452,0.006 0.793,-0.0267 0.869,-0.0341 0.217,-0.0208 0.813,-0.0907 1.741,-0.3612 0.43,-0.1248 0.932,-0.3106 1.936,-0.6806 0.196,-0.0728 0.487,-0.1798 0.894,-0.3195 0.143,-0.0491 0.459,-0.1561 0.87,-0.2839 0.179,-0.0564 0.468,-0.1456 0.825,-0.2481 0.37,-0.107 0.554,-0.1591 0.799,-0.2215 0.397,-0.101 0.454,-0.0995 0.634,-0.1709 0.197,-0.0773 0.398,-0.156 0.599,-0.3418 0.073,-0.0669 0.318,-0.3046 0.425,-0.697 0.037,-0.1367 0.083,-0.3106 0.036,-0.529 -0.015,-0.0699 -0.064,-0.2794 -0.246,-0.4518 -0.036,-0.0342 -0.118,-0.1055 -0.271,-0.1724 z"
       fill="#004445"
       id="path164" />
    <path
       d="m 66.54458,98.076106 c -0.0447,-0.0223 -0.1192,-0.055 -0.2146,-0.0817 -0.2011,-0.055 -0.3665,-0.0431 -0.4186,-0.0401 -0.9595,0.0624 -1.9234,-0.0208 -2.8843,0.004 -0.663,0.0179 -0.5066,0.009 -1.0042,0.0238 -0.438,0.0119 -1.5777,0.049 -2.9648,0.1337 -0.3888,0.0238 -1.0935,0.0699 -4.3354,0.3671 0,0 -1.2321,0.113 -5.4498,0.7981 -0.1296,0.0208 -0.514,0.0862 -0.9446,0.3002 -0.2622,0.1292 -0.4246,0.2556 -0.4842,0.3031 -0.0789,0.0639 -0.3009,0.251204 -0.508,0.560304 -0.1773,0.266 -0.2607,0.4963 -0.3292,0.691 -0.0656,0.1858 -0.1073,0.379 -0.1922,0.7654 -0.0626,0.2853 -0.0641,0.3284 -0.1416,0.6732 -0.0655,0.2913 -0.1028,0.4324 -0.1326,0.538 -0.0506,0.1813 -0.0998,0.3299 -0.1355,0.4369 0.2786,-0.0788 0.6167,-0.1724 1.0056,-0.2735 0.0462,-0.0119 0.5095,-0.1308 0.9714,-0.2363 0.2726,-0.0624 1.1367,-0.2556 2.5565,-0.477 0.9222,-0.1442 1.615,-0.2289 2.1946,-0.2987 1.0294,-0.1248 1.1516,-0.1189 3.1182,-0.324 1.0414,-0.1085 1.8027,-0.1932 2.6087,-0.2838 1.1695,-0.1308 1.6314,-0.1858 1.9383,-0.223 0.8924,-0.1099 1.5568,-0.2006 2.2749,-0.3165 0,0 0.52,-0.0832 1.9026,-0.431 0.1191,-0.0297 0.3471,-0.0891 0.6197,-0.2273 0.1863,-0.0952 0.4723,-0.2423 0.736,-0.551404 0.2458,-0.2868 0.3457,-0.5647 0.4052,-0.7386 0.0641,-0.1828 0.1014,-0.3596 0.0954,-0.5558 -0.006,-0.1798 -0.0432,-0.2675 -0.073,-0.3195 -0.0656,-0.1174 -0.1594,-0.1843 -0.2145,-0.217 z"
       fill="#289989"
       id="path166" />
    <path
       d="m 65.13968,93.435106 c -0.2905,-0.1115 -0.7613,0.0475 -0.7613,0.0475 -0.3144,0.1056 -0.66,0.0788 -0.9863,0.1382 -0.59,0.1085 -0.4961,0.0535 -3.8706,0.5707 -0.3009,0.0461 -1.2976,0.2021 -3.2895,0.5112 -2.9514,0.4592 -2.9231,0.4578 -3.0319,0.4711 -0.359,0.0446 -0.5944,0.0654 -0.9684,0.1486 -0.3262,0.0729 -0.5154,0.1397 -0.9102,0.1962 -0.009,0 -0.0954,0.0104 -0.2101,0.0238 -0.1594,0.0178 -0.2727,0.0297 -0.3039,0.0327 -0.3129,0.0342 -0.5692,0.0609 -0.8358,0.1025 -0.1475,0.0238 -0.3561,0.0595 -0.6064,0.1159 0.1356,0.0476 0.2488,0.055 0.3188,0.0535 0.0998,0 0.1892,-0.0193 0.2056,-0.0222 0.0626,-0.0134 0.0715,-0.0209 0.1341,-0.0327 0.1088,-0.0208 0.1237,-0.005 0.2041,-0.0209 0.1207,-0.0222 0.1177,-0.0639 0.2339,-0.0847 0.0864,-0.0148 0.1028,0.004 0.1937,-0.006 0.1028,-0.0104 0.1088,-0.0386 0.2473,-0.0788 0.0745,-0.0208 0.1788,-0.0505 0.3114,-0.049 0.0834,0 0.1028,0.0134 0.2086,0.0134 0.0894,0 0.1579,-0.0104 0.1922,-0.0149 0,0 0.0819,-0.0119 0.7121,-0.0951 0.0343,-0.005 -0.005,0 0.6376,-0.0654 0.1654,-0.0163 0.3025,-0.0312 0.4887,-0.0565 0.146,-0.0193 0.219,-0.0297 0.3203,-0.049 0.143,-0.0268 0.1892,-0.0431 0.304,-0.058 0.1102,-0.0148 0.1847,-0.0163 0.2741,-0.0193 0.0104,0 0.1832,-0.0134 0.5304,-0.0371 0.1028,-0.007 0.4141,-0.0298 0.6436,-0.0461 0.3426,-0.0253 0.6317,-0.0446 0.6734,-0.0476 0.5572,-0.0386 1.0131,-0.0713 1.5673,-0.1055 0.5006,-0.0297 0.5229,-0.0282 1.0041,-0.0579 0.374,-0.0238 0.6109,-0.0387 0.9356,-0.0654 0.5885,-0.0476 1.028,-0.0981 1.1353,-0.11 0.5661,-0.0654 0.9878,-0.1293 1.095,-0.1456 0.4172,-0.0639 0.7345,-0.1219 0.8626,-0.1457 0.3189,-0.0594 0.5572,-0.104 0.882,-0.1813 0.5259,-0.1263 0.4306,-0.1367 0.7613,-0.2036 0.1729,-0.0342 0.3367,-0.101 0.5066,-0.1501 0.1162,-0.0327 0.2398,-0.0668 0.289,-0.1694 0.0149,-0.0327 0.0328,-0.0936 0.0194,-0.162 -0.005,-0.0223 -0.0134,-0.0669 -0.0507,-0.104 0,0 -0.0268,-0.0282 -0.0685,-0.0431 z"
       fill="#289989"
       id="path168" />
    <path
       d="m 65.42128,90.489608 c -0.2741,0.0699 -0.5661,0.0699 -0.8328,0.162 -0.2503,0.0862 0.0327,-0.0312 -1.3766,0.3195 -0.4634,0.1159 -1.0176,0.2586 -1.7297,0.4548 -1.1919,0.3284 -0.9759,0.2942 -2.4612,0.7133 -0.6377,0.1798 -1.7253,0.483 -1.992,0.6242 -0.0342,0.0178 -0.143,0.0802 -0.2994,0.1114 -0.0998,0.0193 -0.1415,0.0104 -0.2458,0.0253 -0.1684,0.0238 -0.2861,0.0817 -0.3352,0.1025 -0.2429,0.105498 -1.1234,0.338898 -2.2065,0.624198 -0.5483,0.1456 -1.5479,0.4087 -2.7413,0.6643 -0.6123,0.1323 -1.1889,0.2437 -1.3245,0.269 -0.3545,0.0683 -0.66,0.1233 -0.8983,0.1664 0.1311,0.0178 0.3173,0.0372 0.5423,0.0342 0.0536,0 0.2607,-0.006 0.6451,-0.0684 0.2652,-0.0431 0.3367,-0.0698 0.8313,-0.1768 0.0268,-0.006 0.0238,-0.004 0.6734,-0.1412 0.7658,-0.1605 0.8269,-0.1724 0.9148,-0.1917 0.2964,-0.0624 0.5438,-0.1144 0.867,-0.1858 0.368,-0.0802 0.3412,-0.0772 0.6973,-0.156 0.3739,-0.0817 0.7434,-0.1635 1.2097,-0.2571 0.1326,-0.0268 0.3144,-0.0624 0.5647,-0.1204 0.2488,-0.0565 0.3739,-0.0847 0.4887,-0.1204 0.1579,-0.049 0.2219,-0.0802 0.3724,-0.1099 0.1341,-0.0268 0.2071,-0.0268 0.3173,-0.0387 0.2399,-0.0252 0.3978,-0.0758 0.5647,-0.121798 0.0879,-0.0238 -0.0149,0.0059 1.9859,-0.434 0.295,-0.0654 0.0149,-0.0029 1.3871,-0.3076 0.2771,-0.0609 0.5438,-0.1204 0.9073,-0.2051 0.3769,-0.0877 0.5661,-0.1308 0.8224,-0.1976 0.4752,-0.1219 0.8343,-0.2304 0.9818,-0.275 0.3918,-0.1189 0.6898,-0.2214 0.8149,-0.266 0.1371,-0.0475 0.2935,-0.1025 0.4991,-0.1813 0.2175,-0.0832 0.2414,-0.0995 0.4216,-0.1649 0.0641,-0.0238 0.1252,-0.0521 0.1893,-0.0743 0.1236,-0.0446 0.1623,-0.0491 0.1981,-0.0937 0.0581,-0.0683 0.0462,-0.1605 0.0447,-0.1753 -0.0164,-0.1159 -0.1132,-0.1784 -0.1311,-0.1888 -0.1296,-0.0817 -0.292,-0.0386 -0.368,-0.0193 z"
       fill="#289989"
       id="path170" />
    <path
       d="m 63.63818,88.889008 c 0.3709,-0.1248 0.5572,-0.1872 0.5616,-0.1887 0.0537,-0.0164 0.219,-0.0654 0.4306,-0.1442 0.1758,-0.0654 0.2324,-0.0936 0.289,-0.1322 0.0343,-0.0223 0.1579,-0.11 0.2578,-0.2646 0.0596,-0.0936 0.0745,-0.1575 0.0789,-0.2065 0.003,-0.0416 0.007,-0.0951 -0.0238,-0.1368 -0.0447,-0.0594 -0.1401,-0.0549 -0.2429,-0.049 -0.1147,0.006 -0.1966,0.0312 -0.1966,0.0312 -0.2309,0.0699 -0.2831,0.0357 -0.7494,0.1531 -0.1415,0.0357 -0.4157,0.107 -0.7494,0.2333 -0.2771,0.104 -0.3337,0.1486 -0.6734,0.3017 -0.2428,0.1085 -0.5304,0.2184 -1.1069,0.4369 -0.4187,0.159 -0.4679,0.1724 -0.9401,0.3522 -0.3933,0.1486 -0.5319,0.2036 -0.8716,0.3344 -0.9073,0.3477 -1.0727,0.3953 -1.825,0.6836 -0.806,0.3091 -0.6332,0.2616 -1.2336,0.486 -1.2083,0.4547 -1.5494,0.5127 -2.3137,0.8366 -0.1103,0.0476 -0.3308,0.1427 -0.6347,0.2497 -0.3084,0.1085 -0.59,0.2066 -0.7896,0.2437 -0.0253,0.0045 -0.1043,0.0193 -0.2056,0.055 -0.0969,0.0342 -0.1639,0.0699 -0.1877,0.0817 -0.1371,0.0714 -0.298,0.1175 -0.5289,0.1828 -0.736,0.2081 -1.6403,0.3641 -2.1871,0.5856 -0.0596,0.0237 -0.2518,0.103998 -0.5229,0.181298 -0.1148,0.0327 -0.1997,0.0535 -0.3129,0.0802 -0.1713,0.0401 -0.4142,0.0981 -0.7613,0.1798 0.0983,0.0417 0.1832,0.055 0.2384,0.0595 0.0655,0.006 0.1206,0.003 0.1668,0 0.0581,-0.004 0.0835,-0.0104 0.0939,-0.0119 0.0387,-0.009 0.0477,-0.0178 0.1028,-0.0357 0.0447,-0.0148 0.067,-0.0208 0.0998,-0.0252 0.0462,-0.006 0.0492,0.003 0.1237,0 0.0387,-0.002 0.064,-0.003 0.0953,-0.0119 0.0373,-0.0104 0.0581,-0.0268 0.076,-0.0357 0.0641,-0.0357 0.1296,-0.0312 0.1818,-0.0312 0.146,0 0.289,-0.0401 0.435,-0.055 0.368,-0.0357 1.1084,-0.240698 1.6418,-0.390798 0.4663,-0.1323 0.7002,-0.1977 0.8954,-0.2571 2.1126,-0.645 8.4101,-2.8013 9.5796,-3.1952 0.1475,-0.049 1.1904,-0.3997 1.7118,-0.5736 z"
       fill="#289989"
       id="path172" />
    <path
       d="m 5.16628,82.567008 c 0.0909,0.0179 0.2191,0.0417 0.374,0.0699 0.2548,0.0446 0.6853,0.1204 1.1919,0.1813 0.2935,0.0357 0.6883,0.0817 1.2112,0.1011 0.4589,0.0163 0.7643,0.0029 1.3304,-0.0223 0,0 0.298,-0.0134 0.9878,-0.1278 0.0298,-0.0045 0.2801,-0.0476 0.4723,-0.1709 0.0491,-0.0313 0.0253,-0.0238 0.2056,-0.171 0.0193,-0.0163 0.0581,-0.0475 0.0819,-0.101 0.0119,-0.0253 0.0253,-0.0595 0.0149,-0.0981 -0.0104,-0.0357 -0.0387,-0.0639 -0.0685,-0.0773 -0.0343,-0.0148 -0.0611,-0.0044 -0.1088,0 -0.0253,0.003 -0.07,0 -0.1624,-0.0074 -0.1758,-0.0134 -0.3456,-0.0371 -0.3456,-0.0371 -0.146,-0.0209 -0.2771,-0.0313 -0.5393,-0.0521 -0.225,-0.0178 -0.2772,-0.0133 -0.6481,-0.0282 -0.2667,-0.0104 -0.222,-0.0119 -0.7196,-0.0372 -0.438,-0.0222 -0.6615,-0.0326 -0.8701,-0.0356 -0.21,-0.003 -0.4186,-0.006 -0.6987,0.0074 -0.3233,0.0164 -0.5453,0.0446 -0.657,0.0595 -0.219,0.0312 -0.3531,0.0505 -0.5349,0.1099 -0.2354,0.0773 -0.3784,0.1665 -0.4142,0.1888 -0.1206,0.0758 -0.21,0.156 -0.2741,0.2169 l 0.1669,0.0327 z"
       fill="#289989"
       id="path174" />
    <path
       d="m 13.03138,84.365308 c 0.225,0.2289 0.5632,0.5335 1.0191,0.8203 0.5199,0.327 0.9579,0.4815 1.4093,0.6435 0.6869,0.2437 1.2411,0.3567 1.6538,0.4369 0.5333,0.1056 1.0324,0.1709 1.2395,0.1977 0.5438,0.0713 0.8149,0.1055 0.8805,0.1055 0.0268,0 0.1162,-0.0015 0.2294,0.0253 0.0537,0.0133 0.0715,0.0223 0.146,0.046 0.0283,0.009 0.1535,0.0476 0.2578,0.0654 0.076,0.0134 0.1892,0.0223 0.3352,0 -0.1058,-0.0297 -0.1669,-0.0743 -0.2026,-0.1129 -0.0254,-0.0253 -0.0507,-0.0595 -0.0969,-0.0699 -0.0298,-0.0059 -0.0417,0.0045 -0.0953,0 -0.0209,-0.0014 -0.0507,-0.0059 -0.0834,-0.0148 -0.0537,-0.0164 -0.0894,-0.0461 -0.1028,-0.0565 -0.0596,-0.0461 -0.0879,-0.0461 -0.2846,-0.1635 -0.3218,-0.1917 -0.7434,-0.4636 -0.7434,-0.4636 -0.9431,-0.6108 -1.2291,-0.7698 -1.3439,-0.8308 -0.216,-0.1159 -0.3233,-0.1753 -0.3665,-0.1932 -0.1117,-0.0475 -0.2592,-0.098 -0.4022,-0.2006 -0.0894,-0.0639 -0.1371,-0.1189 -0.149,-0.1783 -0.003,-0.0134 -0.006,-0.0402 -0.0209,-0.0788 0,-0.003 -0.0238,-0.0624 -0.0536,-0.0981 -0.0521,-0.0639 -0.1445,-0.0698 -0.1743,-0.0728 -0.1684,-0.0149 0.0343,-0.0624 -0.7315,-0.1783 -0.4932,-0.0743 -0.7688,-0.1159 -1.1695,-0.113 -0.3248,0.003 -0.5736,0.0327 -0.6764,0.0461 -0.2786,0.0372 -0.5185,0.0921 -0.7122,0.1456 l 0.2354,0.2913 z"
       fill="#289989"
       id="path176" />
    <path
       d="m 23.84878,89.186308 c -0.0149,-0.0015 -0.0805,-0.0134 -0.1296,-0.0743 -0.0492,-0.0609 -0.0447,-0.1293 -0.0432,-0.1442 0.0149,0.0015 0.0745,0.0104 0.1221,0.0625 0.0447,0.0475 0.0507,0.1025 0.0522,0.1188 v 0.0372 z"
       fill="#289989"
       id="path178" />
    <path
       d="m 23.53178,88.790908 c -0.0327,-0.0832 -0.07,-0.1471 -0.0998,-0.1902 -0.0566,-0.0832 -0.1162,-0.1382 -0.1624,-0.1828 -0.0536,-0.0491 -0.064,-0.0535 -0.1177,-0.1011 -0.0879,-0.0787 -0.14,-0.1456 -0.1743,-0.1857 -0.0819,-0.0981 -0.1624,-0.168 -0.3218,-0.3077 -0.3024,-0.266 -0.6004,-0.4354 -0.666,-0.4725 -0.2383,-0.1338 -0.5065,-0.2497 -0.6465,-0.2869 -0.1043,-0.0282 -0.2041,-0.0713 -0.3114,-0.0906 -0.005,0 -0.0194,-0.003 -0.0373,-0.0119 -0.0253,-0.0119 -0.0387,-0.0282 -0.0506,-0.0401 -0.0239,-0.0223 -0.0447,-0.0327 -0.0849,-0.052 -0.0239,-0.0119 -0.073,-0.0342 -0.1416,-0.0372 -0.0596,-0.0015 -0.1072,0.0119 -0.137,0.0253 0.0387,0.0371 0.0745,0.0609 0.0998,0.0758 0.0402,0.0223 0.076,0.0341 0.1266,0.052 0.0462,0.0163 0.0507,0.0148 0.0969,0.0312 0.009,0.003 0.0417,0.0148 0.0968,0.0386 0.0626,0.0283 0.1102,0.0505 0.1222,0.058 0.14,0.0713 0.1713,0.0817 0.3203,0.1575 0.1266,0.0654 0.3546,0.1828 0.6391,0.3567 0.1267,0.0773 0.219,0.1382 0.2429,0.1545 0.0908,0.061 0.2443,0.1635 0.432,0.3106 0.0775,0.061 0.1862,0.1472 0.3129,0.2646 0.1177,0.1084 0.1385,0.1411 0.2056,0.1932 0,0 0.0715,0.0549 0.1207,0.1144 0.0134,0.0163 0.0268,0.0327 0.0268,0.0327 0.0208,0.0267 0.0342,0.0535 0.0491,0.0669 0.012,0.0104 0.0581,0.0282 0.0581,0.0282 z"
       fill="#289989"
       id="path180" />
    <path
       d="m 51.28418,55.656508 c -0.0552,-0.0371 -0.2339,-0.1426 -0.8835,0 -0.2592,0.0565 -0.5259,0.1383 -0.8894,0.2854 -0.3204,0.1308 -0.5423,0.2407 -0.7912,0.3656 -0.5303,0.2645 -0.9818,0.4889 -1.2589,0.6212 -0.8015,0.3819 -1.4451,0.6122 -1.6313,0.6791 -0.4395,0.1546 -0.8954,0.3121 -1.5271,0.4399 -0.3695,0.0743 -0.8224,0.1635 -1.4273,0.1739 -0.5974,0.0089 -0.8969,0.0148 -1.2351,-0.0847 -0.1415,-0.0416 -0.3367,-0.1115 -0.6153,-0.107 -0.1236,0.0015 -0.3337,0.0074 -0.5691,0.1203 -0.3531,0.168 -0.5169,0.4563 -0.5616,0.538 -0.1639,0.2957 -0.1624,0.5722 -0.1609,0.6881 0.004,0.2809 0.0879,0.477 0.2085,0.7624 0.1058,0.2511 0.2131,0.419 0.3963,0.7073 0.158,0.2482 0.2622,0.382 0.3442,0.4786 0.1072,0.1263 0.1832,0.2155 0.3069,0.3091 0.0432,0.0327 0.219,0.162 0.5185,0.2541 0.2249,0.0684 0.4305,0.0877 0.7985,0.0862 0.5214,-0.0045 0.9163,-0.049 0.9609,-0.055 1.0295,-0.1218 1.5435,-0.1813 1.7685,-0.2184 0.3858,-0.0625 0.9982,-0.165 1.7878,-0.3656 0.6287,-0.1605 1.0026,-0.2556 1.5107,-0.4667 0.3084,-0.1293 0.7747,-0.3269 1.311,-0.7059 0.1967,-0.1382 0.5304,-0.3774 0.891,-0.7713 0.2339,-0.2556 0.5557,-0.6152 0.7955,-1.1814 0.1669,-0.3953 0.219,-0.7163 0.2593,-0.9719 0.064,-0.4147 0.1221,-0.8189 -0.0611,-1.2394 -0.0581,-0.1323 -0.1133,-0.2527 -0.2414,-0.3404 z"
       fill="#289989"
       id="path182" />
    <path
       d="m 63.27878,69.736008 c -0.2979,0.6687 -1.101,1.3315 -1.2201,1.4296 -0.6273,0.5112 -1.186,0.8813 -1.7223,1.2127 -0.8701,0.5409 -1.5718,0.9154 -2.8217,1.5827 -0.6645,0.3552 -0.593,0.3091 -1.4899,0.7861 -1.1889,0.6316 -1.7833,0.9482 -2.3197,1.2647 -0.4931,0.2898 -1.1441,0.6762 -1.9606,1.2558 -0.9699,0.6881 -1.6418,1.2736 -1.822,1.4311 -0.2459,0.2155 -0.806,0.7178 -1.4705,1.4222 -0.6243,0.6613 -1.0772,1.2246 -1.323,1.5396 -0.3322,0.4251 -0.7494,0.9913 -1.1904,1.6838 -0.1892,0.2972 -0.4842,0.7609 -0.7851,1.3345 -0.3531,0.6718 -0.5289,1.0076 -0.5527,1.0893 -0.005,0.0149 -0.0343,0.1279 -0.1222,0.2467 -0.0492,0.0669 -0.0879,0.1189 -0.1475,0.1368 -0.1088,0.0341 -0.2235,-0.061 -0.3769,-0.1843 -0.1505,-0.1189 -0.3189,-0.2155 -0.4589,-0.3463 -0.213,-0.1991 -0.2682,-0.1976 -1.1457,-0.8277 -0.6227,-0.4474 -0.9341,-0.6718 -1.2768,-0.9526 -0.4216,-0.3463 -0.6749,-0.5558 -0.9699,-0.8798 -0.5333,-0.59 -0.8343,-1.1592 -0.9669,-1.4341 0,0 -0.4037,-0.8382 -0.6331,-2.1801 -0.0447,-0.2571 -0.0388,-0.3612 -0.1088,-0.6227 -0.0447,-0.1679 -0.0939,-0.3017 -0.0924,-0.5053 0,-0.1055 0.002,-0.2125 0.0462,-0.318 0.0954,-0.2304 0.3367,-0.3121 0.6362,-0.4414 0.2816,-0.1219 0.5408,-0.2928 0.8224,-0.4131 0.1758,-0.0743 0.0342,-0.0194 1.6343,-0.8174 0.4157,-0.2066 1.396,-0.6955 2.4642,-1.2186 0.6436,-0.3151 1.7461,-0.853 3.1585,-1.5144 2.114,-0.9912 3.6933,-1.6822 4.094,-1.8576 1.1993,-0.5246 1.9338,-0.8441 2.9871,-1.2572 0.9595,-0.376 1.7491,-0.6851 2.8576,-1.0344 1.7997,-0.5662 3.0765,-0.8084 3.4281,-0.8723 1.0697,-0.1947 1.3721,-0.162 1.9248,-0.2601 0.2205,-0.0386 0.4485,-0.0163 0.6705,-0.0446 0.0417,-0.0059 0.143,-0.0193 0.2547,0.0253 0.0343,0.0134 0.1386,0.0565 0.1997,0.162 0.0268,0.0475 0.0432,0.101 0.0417,0.2704 -0.001,0.2244 -0.0268,0.3612 -0.0268,0.3612 -0.005,0.0208 -0.0805,0.4369 -0.219,0.749 z"
       fill="#289989"
       id="path184" />
    <path
       d="m 78.40538,71.748208 c -0.0924,-0.0921 -0.1743,-0.1501 -0.2339,-0.1872 -0.0641,-0.0402 -0.0968,-0.0639 -0.2235,-0.1278 0,0 -0.073,-0.0431 -0.1713,-0.1041 -0.3024,-0.1902 -1.0369,-0.7282 -1.0369,-0.7282 -0.4127,-0.3016 -0.3278,-0.2214 -0.6854,-0.4859 -0.4648,-0.3433 -0.5437,-0.4354 -0.9862,-0.7535 -0.301,-0.2169 -0.5379,-0.3715 -0.6258,-0.4295 -0.1877,-0.1218 -0.5288,-0.3418 -0.9862,-0.587 -0.7435,-0.3968 -1.3424,-0.6167 -1.4824,-0.6672 -0.4529,-0.1635 -0.809,-0.2571 -0.9475,-0.2913 -0.3472,-0.0877 -0.6273,-0.1367 -0.7777,-0.162 -0.2518,-0.0416 -0.5781,-0.0847 -0.9595,-0.107 0,0 -0.1713,-0.003 -0.3084,-0.0134 -0.0521,-0.0044 -0.079,-0.0059 -0.0849,-0.0074 -0.0417,-0.0045 -0.0507,-0.0089 -0.073,-0.006 -0.0179,0.0015 -0.0522,0.006 -0.079,0.0313 -0.0268,0.0267 -0.0298,0.0609 -0.0313,0.0698 -0.004,0.0476 0.0239,0.0862 0.0388,0.107 0.0775,0.104 0.1147,0.156 0.1654,0.2095 0.0655,0.0699 0.0432,0.055 0.1609,0.1932 0.0283,0.0342 0.1951,0.2289 0.3828,0.4176 0.2995,0.3017 0.5826,0.5172 0.7271,0.6257 0.1713,0.1293 0.3933,0.2868 0.724,0.4874 0.1833,0.1115 0.8761,0.5246 2.0024,0.9898 0.4425,0.1813 0.7687,0.2972 1.1993,0.4488 0.4618,0.162 0.9505,0.3329 1.612,0.5172 0.8894,0.2466 1.4734,0.3462 1.5897,0.3566 0.0357,0.003 0.1177,0.0164 0.28,0.0416 0.0149,0.0015 0.0447,0.0075 0.0835,0.0179 0.0596,0.0163 0.1013,0.0371 0.1102,0.0416 0.0477,0.0223 0.1654,0.052 0.4544,0.0891 l 0.1624,0.0164 z"
       fill="#289989"
       id="path186" />
    <path
       d="m 89.87508,62.849408 c -0.478,0.1991 -0.8653,0.5394 -0.8653,0.5394 -0.3412,0.3002 -0.5915,0.5811 -0.7613,0.7847 -0.3397,0.4087 -0.5557,0.752 -0.6988,0.9838 -0.2145,0.3433 -0.3531,0.6123 -0.581,1.0522 -0.1505,0.2912 -0.2652,0.5275 -0.3874,0.7787 -0.0327,0.0683 -0.1013,0.208 -0.4022,0.8471 -0.301,0.6375 -0.301,0.6449 -0.4097,0.8708 -0.222,0.4652 -0.3338,0.6985 -0.4574,0.9348 -0.1296,0.2467 -0.362,0.6851 -0.6511,1.1175 -0.1147,0.1724 -0.1951,0.2765 -0.3694,0.5321 -0.0954,0.1397 -0.1207,0.1813 -0.1818,0.2511 -0.0328,0.0387 -0.0641,0.0699 -0.0983,0.1249 -0.0477,0.0728 -0.073,0.1397 -0.0894,0.1857 0.0447,-0.0119 0.1087,-0.0371 0.1504,-0.0951 0.0373,-0.0535 0.0209,-0.0847 0.0611,-0.1456 0.0358,-0.055 0.0596,-0.0461 0.152,-0.1263 0.079,-0.0684 0.1281,-0.1338 0.1385,-0.1487 0.0492,-0.0653 0.0388,-0.0728 0.0939,-0.1441 0.0238,-0.0312 0.0536,-0.0639 0.1132,-0.1293 0.0537,-0.058 0.0939,-0.1011 0.0999,-0.107 0.1191,-0.1263 0.1787,-0.1902 0.207,-0.2244 0.1386,-0.1739 0.1013,-0.2452 0.231,-0.3819 0.0745,-0.0788 0.1445,-0.1174 0.1758,-0.1368 0.3888,-0.2362 1.2708,-1.3835 1.609,-1.8071 0.1683,-0.2125 0.3993,-0.474 0.8611,-0.9986 0.4976,-0.5648 1.1993,-1.342 1.9172,-2.2559 0.075,-0.0952 0.321,-0.4117 0.534,-0.8724 0,0 0.123,-0.269 0.256,-0.8931 0,0 0.033,-0.1546 0,-0.3909 -0.003,-0.0193 -0.009,-0.0535 -0.031,-0.0892 -0.042,-0.0668 -0.114,-0.0906 -0.143,-0.0995 -0.206,-0.0684 -0.468,0.0416 -0.468,0.0416 z"
       fill="#289989"
       id="path188" />
    <path
       d="m 100.32108,57.285408 c -0.157,0.0148 -1.052,0.0609 -1.052,0.0609 -0.59,0.0297 -1.247,0.1783 -1.492,0.2318 -0.935,0.2111 -1.618,0.4919 -1.816,0.5766 -0.645,0.2735 -1.133,0.5603 -1.419,0.7401 -0.488,0.3076 -0.818,0.5751 -0.908,0.6495 -0.286,0.2348 -0.518,0.4577 -0.696,0.642 0.026,0.0133 0.065,0.0297 0.114,0.0312 0.055,0.0014 0.097,-0.0164 0.114,-0.0238 0.093,-0.0387 0.194,-0.055 0.288,-0.0922 0.009,-0.0044 0.006,-0.0029 0.684,-0.2184 0.305,-0.0981 1.564,-0.5008 1.977,-0.6316 0.542,-0.1739 0.848,-0.272 1.268,-0.4057 1.39,-0.4459 1.33,-0.4295 1.376,-0.4429 0.394,-0.107 0.773,-0.2541 1.162,-0.3745 0,0 0.139,-0.0431 0.444,-0.2184 0.011,-0.006 0.151,-0.0877 0.246,-0.2274 0.022,-0.0312 0.048,-0.0758 0.051,-0.1353 0,-0.0208 0.003,-0.0787 -0.039,-0.1233 -0.03,-0.0327 -0.069,-0.0431 -0.083,-0.0461 -0.029,-0.0074 -0.048,-0.0029 -0.1,0 -0.039,0.003 -0.079,0.0045 -0.118,0.0075 z"
       fill="#289989"
       id="path190" />
    <path
       d="m 101.64108,54.839208 c 0.353,-0.6004 0.809,-1.3227 1.379,-2.1118 0.222,-0.3061 0.669,-0.9095 1.288,-1.6392 0.189,-0.2244 0.87,-1.018 1.986,-2.1073 0.946,-0.9229 1.674,-1.5396 2.558,-2.2886 1.771,-1.50096 2.672,-2.10432 3.286,-2.62892 0.058,-0.04904 0.219,-0.18873 0.456,-0.34478 0.224,-0.14861 0.288,-0.16198 0.569,-0.32248 0.672,-0.38491 0.817,-0.60039 0.875,-0.73711 0.024,-0.05648 0.077,-0.18725 0.034,-0.32843 -0.009,-0.02973 -0.034,-0.107 -0.104,-0.16348 -0.088,-0.07133 -0.192,-0.06984 -0.298,-0.06687 -0.033,0 -0.096,0.0045 -0.319,0.0639 -0.219,0.05796 -0.224,0.07133 -0.322,0.08917 -0.106,0.01932 -0.165,0.01486 -0.369,0.01189 -0.255,-0.0045 -0.383,-0.006 -0.483,-0.003 -0.32,0.01188 -0.283,0.05944 -0.611,0.0743 -0.195,0.0089 -0.319,-0.003 -0.539,0.04013 -0.152,0.02972 -0.209,0.05795 -0.225,0.06687 -0.137,0.07133 -0.192,0.16644 -0.324,0.32992 -0.086,0.10551 -0.184,0.20062 -0.275,0.30316 -0.273,0.3106 -0.544,0.59593 -1.344,1.49503 -1.217,1.36722 -2.285,2.60957 -2.497,2.85627 -0.396,0.4607 -0.946,1.1027 -1.667,1.9676 0,0 -1.012,1.2127 -2.418,2.9396 -0.075,0.0921 -0.438,0.5394 -0.676,0.8203 -0.094,0.1115 -0.179,0.2304 -0.282,0.3344 -0.018,0.0178 -0.091,0.0921 -0.168,0.2021 -0.088,0.1248 -0.096,0.1754 -0.094,0.2125 0.003,0.0728 0.041,0.1263 0.076,0.1709 0.061,0.0832 0.125,0.1189 0.168,0.1516 0.073,0.055 0.161,0.1516 0.222,0.3388 l 0.122,0.272 z"
       fill="#289989"
       id="path192" />
    <path
       d="m 99.50608,50.003408 c -0.221,1.1532 -0.357,2.0003 -0.458,2.3376 -0.055,0.1858 -0.129,0.3151 -0.107,0.5306 0.012,0.1189 0.049,0.2348 -0.018,0.3121 -0.052,0.0594 -0.14,0.0639 -0.183,0.0654 -0.118,0.0059 -0.157,-0.0446 -0.303,-0.0847 -0.077,-0.0208 -0.161,-0.0238 -0.327,-0.0313 -0.151,-0.0059 -0.222,0 -0.339,-0.0326 -0.076,-0.0223 -0.122,-0.0357 -0.155,-0.0788 -0.055,-0.0743 -0.022,-0.1709 -0.003,-0.2957 0.015,-0.0966 -0.003,-0.0565 -0.007,-0.4474 0,0 -0.003,-0.2853 0.006,-0.5483 0.012,-0.3731 0.046,-0.4934 0.07,-0.8025 0.036,-0.4578 -0.015,-0.4548 0.001,-1.021 0.012,-0.4131 0.042,-0.4711 0.087,-1.0953 0.036,-0.4948 0.045,-0.8337 0.052,-1.0061 0.048,-1.2141 0.334,-3.05689 0.408,-3.52353 0,0 0.267,-1.66593 0.733,-3.56221 0.032,-0.12632 0.057,-0.17982 0.096,-0.35815 0.012,-0.05202 0.023,-0.11592 0.059,-0.19914 0.02,-0.04458 0.048,-0.10997 0.096,-0.16793 0.055,-0.06688 0.126,-0.10997 0.284,-0.16793 0.133,-0.04904 0.224,-0.06985 0.383,-0.10997 0.326,-0.08174 0.295,-0.07877 0.496,-0.12632 0.198,-0.04756 0.35,-0.07728 0.398,-0.08768 0.039,-0.0074 0.146,-0.02973 0.344,-0.06391 0.222,-0.03864 0.402,-0.07133 0.627,-0.10254 0.142,-0.01932 0.34,-0.04755 0.589,-0.06687 0.21,-0.01635 0.487,-0.03121 0.815,-0.02527 -0.099,0.09957 -0.242,0.25413 -0.389,0.4607 -0.04,0.05647 -0.063,0.09065 -0.256,0.39976 -0.209,0.33289 -0.313,0.49933 -0.349,0.56324 -0.11,0.19468 -0.176,0.33586 -0.295,0.59593 -0.216,0.4711 -0.362,0.84114 -0.395,0.92436 -0.188,0.48001 -0.332,0.91099 -0.46,1.3271 -0.292,0.94665 -0.471,1.70902 -0.548,2.0434 -0.227,0.97336 -0.595,2.56506 -0.952,4.44346 z"
       fill="#289989"
       id="path194" />
    <path
       d="m 95.73808,52.800308 c 0.043,0.1234 0.077,0.2021 0.047,0.2958 -0.017,0.0594 -0.053,0.0966 -0.061,0.104 -0.068,0.0713 -0.152,0.0683 -0.283,0.0966 -0.143,0.0312 -0.248,0.0787 -0.317,0.1114 -0.173,0.0788 -0.299,0.1591 -0.299,0.1591 -0.081,0.0505 -0.124,0.0847 -0.193,0.0832 -0.082,-0.003 -0.141,-0.055 -0.156,-0.0699 -0.04,-0.0386 -0.052,-0.0758 -0.087,-0.162 -0.028,-0.0713 -0.062,-0.1396 -0.087,-0.2125 -0.063,-0.1753 -0.929,-2.2172 -1.663,-3.898 -1.471,-3.36459 -2.503,-5.48825 -2.648,-5.77804 -0.299,-0.60187 -0.449,-0.90207 -0.451,-0.90355 -0.022,-0.03716 -0.043,-0.08174 -0.085,-0.17091 -0.025,-0.0535 -0.039,-0.0847 -0.043,-0.12929 0,-0.01634 -0.006,-0.06984 0.016,-0.12186 0.033,-0.08025 0.112,-0.11889 0.137,-0.13226 0.283,-0.14415 1.32,-0.80547 1.469,-0.91247 0.063,-0.04459 0.134,-0.07728 0.196,-0.12187 0.049,-0.03566 0.08,-0.0639 0.125,-0.05944 0.061,0.0045 0.101,0.0639 0.108,0.07431 0.033,0.04755 0.026,0.08322 0.042,0.15158 0.018,0.07728 0.048,0.12037 0.073,0.16793 0.036,0.06985 0.163,0.37004 0.414,0.9734 0.818,1.9587 1.647,4.21907 1.647,4.21907 0.15,0.4102 0.49,1.3434 0.896,2.5427 0,0 0.377,1.1087 0.814,2.4729 0.231,0.7223 0.232,0.7698 0.296,0.9363 0.036,0.0936 0.057,0.1917 0.09,0.2868 z"
       fill="#289989"
       id="path196" />
    <path
       d="m 92.59308,54.452808 c -0.806,-0.0817 -1.588,-0.3239 -2.388,-0.4443 -1.2456,-0.1858 -2.4569,-0.4964 -3.254,-0.6955 0,0 -1.4123,-0.3582 -2.8679,-0.8337 -0.4335,-0.1412 -1.0265,-0.3507 -1.1859,-0.4027 -0.0804,-0.0268 -0.1088,-0.0313 -0.1683,-0.0595 -0.0388,-0.0178 -0.0626,-0.0342 -0.1073,-0.0431 -0.0298,-0.0059 -0.0715,-0.0148 -0.1162,0 -0.0447,0.0164 -0.07,0.0505 -0.1013,0.0966 -0.0388,0.0565 -0.0462,0.0877 -0.0805,0.1605 -0.0193,0.0401 -0.0402,0.0743 -0.0834,0.1457 -0.0656,0.1084 -0.4216,0.6642 -0.9118,1.4207 0.1326,-0.0268 0.301,-0.0535 0.4946,-0.0743 0.0894,-0.0089 0.2861,-0.0268 0.5543,-0.0298 0.2145,0 0.5288,0.0075 1.0503,0.0744 0.4603,0.0594 0.806,0.1278 0.9445,0.156 1.5033,0.3002 0.4991,0.0728 1.9175,0.37 1.7431,0.3641 4.8334,1.0359 5.2084,1.131 0.085,0.0208 0.15,0.0341 0.283,0.0609 0.143,0.0282 0.194,0.0342 0.252,0.0371 0.097,0.003 0.177,0.0045 0.264,-0.0386 0.065,-0.0327 0.101,-0.0743 0.15,-0.1308 0.049,-0.0579 0.061,-0.0847 0.189,-0.3195 0.055,-0.0996 0.091,-0.2095 0.152,-0.3061 0.006,-0.0104 0.03,-0.0476 0.034,-0.0996 0.002,-0.0238 0.006,-0.0609 -0.016,-0.0936 -0.006,-0.0074 -0.022,-0.0312 -0.106,-0.0565 -0.041,-0.0134 -0.064,-0.0193 -0.105,-0.0238 z"
       fill="#289989"
       id="path198" />
  </g>
  <text
     xml:space="preserve"
     style="font-size:16px;line-height:1.25;font-family:sans-serif"
     x="188.50842"
     y="56.967934"
     id="text784"><tspan
       sodipodi:role="line"
       id="tspan782"
       x="188.50842"
       y="56.967934">Wor</tspan></text>
  <g
     inkscape:groupmode="layer"
     id="layer1"
     inkscape:label="Layer 1"
     transform="translate(91.445689,88.931744)">
    <text
       xml:space="preserve"
       style="font-size:20px;line-height:1.25;font-family:sans-serif;fill:#004445;fill-opacity:1"
       x="299.77881"
       y="-21.800966"
       id="text789"><tspan
         sodipodi:role="line"
         x="299.77881"
         y="-21.800966"
         style="font-size:20px;text-align:center;text-anchor:middle;fill:#004445;fill-opacity:1"
         id="tspan2173"><tspan
   dx="-31.606396"
   id="tspan849"
   style="font-size:20px;text-align:center;text-anchor:middle;fill:#004445;fill-opacity:1">Integrated Perception, Planning, and Control </tspan>for </tspan><tspan
         sodipodi:role="line"
         x="299.77881"
         y="3.1990337"
         style="font-size:20px;text-align:center;text-anchor:middle;fill:#004445;fill-opacity:1"
         id="tspan726">Physically and Contextually-Aware </tspan><tspan
         sodipodi:role="line"
         x="299.77881"
         y="28.199034"
         style="font-size:20px;text-align:center;text-anchor:middle;fill:#004445;fill-opacity:1"
         id="tspan728">Robot Autonomy</tspan><tspan
         sodipodi:role="line"
         x="299.77881"
         y="53.199036"
         style="font-size:20px;text-align:center;text-anchor:middle;fill:#004445;fill-opacity:1"
         id="tspan845" /></text>
    <text
       xml:space="preserve"
       style="font-style:normal;font-variant:normal;font-weight:bold;font-stretch:normal;font-size:20px;line-height:1.25;font-family:sans-serif;-inkscape-font-specification:'sans-serif Bold';fill:#004445;fill-opacity:1"
       x="281.27054"
       y="-44.084869"
       id="text789-7"><tspan
         sodipodi:role="line"
         x="281.27054"
         y="-44.084869"
         style="font-style:normal;font-variant:normal;font-weight:bold;font-stretch:normal;font-size:20px;font-family:sans-serif;-inkscape-font-specification:'sans-serif Bold';text-align:center;text-anchor:middle;fill:#004445;fill-opacity:1"
         id="tspan845-0">IROS 2023 IPPC WORKSHOP</tspan></text>
    <text
       xml:space="preserve"
       style="font-style:normal;font-variant:normal;font-weight:bold;font-stretch:normal;font-size:16px;line-height:1.25;font-family:sans-serif;-inkscape-font-specification:'sans-serif Bold';fill:#004445;fill-opacity:1"
       x="5.2277308"
       y="69.019958"
       id="text789-7-3"><tspan
         sodipodi:role="line"
         x="5.2277308"
         y="69.019958"
         style="font-style:normal;font-variant:normal;font-weight:normal;font-stretch:normal;font-size:16px;font-family:sans-serif;-inkscape-font-specification:sans-serif;text-align:center;text-anchor:middle;fill:#004445;fill-opacity:1"
         id="tspan845-0-8">OCTOBER 1, 2023</tspan></text>
    <text
       xml:space="preserve"
       style="font-style:normal;font-variant:normal;font-weight:bold;font-stretch:normal;font-size:16px;line-height:1.25;font-family:sans-serif;-inkscape-font-specification:'sans-serif Bold';fill:#004445;fill-opacity:1"
       x="342.79816"
       y="68.63324"
       id="text789-7-3-2"><tspan
         sodipodi:role="line"
         x="342.79816"
         y="68.63324"
         style="font-style:normal;font-variant:normal;font-weight:normal;font-stretch:normal;font-size:16px;font-family:sans-serif;-inkscape-font-specification:sans-serif;text-align:center;text-anchor:middle;fill:#004445;fill-opacity:1"
         id="tspan845-0-8-6">Huntington Place in Detroit, Michigan, USA</tspan></text>
  </g>
</svg>
